<svg xmlns="http://www.w3.org/2000/svg" viewBox="0 0 1050 450"><defs><style>.cls-1{isolation:isolate;}.cls-2{font-size:99.55px;font-family:SFProDisplay-Heavy, SF Pro Display;font-weight:800;}.cls-18,.cls-2{fill:#ff4c6b;}.cls-3{letter-spacing:-0.04em;}.cls-4{letter-spacing:-0.09em;}.cls-5{fill:#9881b7;}.cls-25,.cls-5{opacity:0.55;}.cls-16,.cls-25,.cls-5,.cls-9{mix-blend-mode:multiply;}.cls-6{fill:#727272;}.cls-7{fill:#7c7c7c;}.cls-8{fill:#0254e4;}.cls-9{fill:#00a1cc;opacity:0.65;}.cls-10{fill:#292c3d;}.cls-11{fill:#f9a57e;}.cls-12{fill:#e76f59;}.cls-13{fill:#e8a393;}.cls-14{fill:#4d505e;}.cls-15{fill:#3d3848;}.cls-16{fill:#ca0045;opacity:0.32;}.cls-17{fill:#da395b;}.cls-19{fill:#fff;}.cls-20{fill:#d8d8d8;}.cls-21{fill:#afeaf0;}.cls-22{fill:#7695a8;}.cls-23{fill:#5ac4e0;}.cls-24{fill:#ffb089;}.cls-25{fill:#abacb3;}.cls-26{fill:#3f6a85;}.cls-27{fill:#5b5d6a;}.cls-28{fill:#273137;}.cls-29{fill:#f8f2ed;}.cls-30{fill:#48525b;}.cls-31{fill:#b6b6b6;}.cls-32{fill:#fff9fd;}.cls-33{fill:#8494ab;}.cls-34{fill:#b3b2da;}</style></defs><title>ART1Artboard 5</title><g class="cls-1"><g id="Layer_1" data-name="Layer 1"><text class="cls-2" transform="translate(123.41 246.55) scale(0.84 1)">TECH IN EDU<tspan class="cls-3" x="604.49" y="0">C</tspan><tspan class="cls-4" x="673.13" y="0">A</tspan><tspan x="735.59" y="0">TION</tspan></text><ellipse class="cls-5" cx="525" cy="320.39" rx="467.79" ry="16.7"/><path class="cls-6" d="M248.21,161.47h-1v-4h1Zm0-8h-1v-4h1Zm0-8h-1v-4h1Zm0-8h-1v-4h1Zm0-8h-1v-4h1Zm0-8h-1v-4h1Zm0-8h-1v-4h1Zm0-8h-1v-4h1Zm0-8h-1v-4h1Zm0-8h-1v-4h1Zm0-8h-1v-4h1Zm44-7h-4v-1h4Zm-8,0h-4v-1h4Zm-8,0h-4v-1h4Zm-8,0h-4v-1h4Zm-8,0h-4v-1h4Zm-8,0h-4v-1h4Z"/><circle class="cls-6" cx="247.71" cy="161.36" r="1.88"/><path class="cls-6" d="M249.84,161.36a2.13,2.13,0,1,0-2.13,2.13,2.13,2.13,0,0,0,2.13-2.13Zm-3.76,0a1.63,1.63,0,1,1,1.63,1.63,1.63,1.63,0,0,1-1.63-1.63Z"/><path class="cls-6" d="M295.63,75.83A1.88,1.88,0,1,0,293.75,74,1.88,1.88,0,0,0,295.63,75.83Z"/><path class="cls-6" d="M295.63,76.08A2.13,2.13,0,1,1,297.76,74a2.13,2.13,0,0,1-2.13,2.13Zm0-3.76A1.63,1.63,0,1,0,297.26,74a1.63,1.63,0,0,0-1.63-1.63Z"/><path class="cls-6" d="M483.14,161.48h-1V157.7h1Zm0-7.78h-1v-4h1Zm0-8h-1v-4h1Zm0-8h-1v-4h1Zm0-8h-1v-4h1Zm0-8h-1v-4h1Zm0-8h-1v-4h1Zm0-8h-1v-4h1Zm0-8h-1v-4h1Zm0-8h-1v-4h1ZM481,83.85h-4v-1h4Zm-8,0h-4v-1h4Zm-8,0h-4v-1h4Z"/><path class="cls-6" d="M461.1,85.23A1.88,1.88,0,1,1,463,83.35,1.88,1.88,0,0,1,461.1,85.23Z"/><path class="cls-6" d="M461.1,85.48A2.13,2.13,0,1,0,459,83.35a2.14,2.14,0,0,0,2.13,2.13Zm0-3.76a1.63,1.63,0,1,1-1.63,1.63,1.64,1.64,0,0,1,1.63-1.63Z"/><path class="cls-6" d="M480.76,161.37a1.88,1.88,0,1,0,1.88-1.88A1.88,1.88,0,0,0,480.76,161.37Z"/><path class="cls-6" d="M480.51,161.37a2.13,2.13,0,1,1,2.13,2.13,2.13,2.13,0,0,1-2.13-2.13Zm3.76,0a1.63,1.63,0,1,0-1.63,1.63,1.64,1.64,0,0,0,1.63-1.63Z"/><path class="cls-7" d="M827.38,144.22h-1v-4h1Zm0-8h-1v-4h1Zm0-8h-1v-4h1Zm0-8h-1v-4h1Zm0-8h-1v-4h1Zm0-8h-1v-4h1Z"/><path class="cls-7" d="M828.76,144.12a1.88,1.88,0,1,1-1.88-1.88A1.89,1.89,0,0,1,828.76,144.12Z"/><path class="cls-7" d="M829,144.12a2.13,2.13,0,1,0-2.13,2.13,2.13,2.13,0,0,0,2.13-2.13Zm-3.76,0a1.63,1.63,0,1,1,1.63,1.63,1.63,1.63,0,0,1-1.63-1.63Z"/><path class="cls-7" d="M828.76,100.21a1.88,1.88,0,1,0-1.88,1.88A1.89,1.89,0,0,0,828.76,100.21Z"/><path class="cls-7" d="M829,100.21a2.13,2.13,0,1,1-2.13-2.13,2.13,2.13,0,0,1,2.13,2.13Zm-3.76,0a1.63,1.63,0,1,0,1.63-1.63,1.63,1.63,0,0,0-1.63,1.63Z"/><path class="cls-7" d="M603.44,148.8h-1v-2.36h1Zm0-6.36h-1v-4h1Zm0-8h-1v-4h1Zm0-8h-1v-4h1Zm0-8h-1v-4h1Zm0-8h-1v-4h1Zm0-8h-1v-4h1Zm0-8h-1v-4h1Zm123.28-7.72h-4v-1h4Zm-8,0h-4v-1h4Zm-8,0h-4v-1h4Zm-8,0h-4v-1h4Zm-8,0h-4v-1h4Zm-8,0h-4v-1h4Zm-8,0h-4v-1h4Zm-8,0h-4v-1h4Zm-8,0h-4v-1h4Zm-8,0h-4v-1h4Zm-8,0h-4v-1h4Zm-8,0h-4v-1h4Zm-8,0h-4v-1h4Zm-8,0h-4v-1h4Zm-8,0h-4v-1h4Zm-8,0h-3.78v-.28h-.5v-.72h4.28Z"/><path class="cls-7" d="M726.61,84.34a1.88,1.88,0,1,1-1.88,1.88A1.88,1.88,0,0,1,726.61,84.34Z"/><path class="cls-7" d="M726.61,84.09a2.13,2.13,0,1,0,2.13,2.13,2.14,2.14,0,0,0-2.13-2.13Zm0,3.76a1.63,1.63,0,1,1,1.63-1.63,1.64,1.64,0,0,1-1.63,1.63Z"/><circle class="cls-7" cx="602.94" cy="148.7" r="1.88"/><path class="cls-7" d="M600.81,148.7a2.13,2.13,0,1,1,2.13,2.13,2.13,2.13,0,0,1-2.13-2.13Zm3.76,0a1.63,1.63,0,1,0-1.63,1.63,1.64,1.64,0,0,0,1.63-1.63Z"/><path class="cls-7" d="M675.42,390.55h-4v-1h4Zm-8,0h-4v-1h4Zm-8,0h-4v-1h4Zm-8,0h-4v-1h4Zm-8,0h-4v-1h4Zm-8,0h-4v-1h4Zm-8,0h-4v-1h4Zm-8,0h-4v-1h4Zm-4.94-3.06h-1v-4h1Zm0-8h-1v-4h1Zm0-8h-1v-4h1Zm0-8h-1v-4h1Z"/><path class="cls-7" d="M612.1,359.6a1.88,1.88,0,1,1,1.88,1.88A1.88,1.88,0,0,1,612.1,359.6Z"/><path class="cls-7" d="M611.85,359.6a2.13,2.13,0,1,0,2.13-2.13,2.13,2.13,0,0,0-2.13,2.13Zm3.76,0A1.63,1.63,0,1,1,614,358a1.64,1.64,0,0,1,1.63,1.63Z"/><path class="cls-7" d="M676.64,391.93a1.88,1.88,0,1,0-1.88-1.88A1.88,1.88,0,0,0,676.64,391.93Z"/><path class="cls-7" d="M676.64,392.18a2.13,2.13,0,1,1,2.13-2.13,2.14,2.14,0,0,1-2.13,2.13Zm0-3.76a1.63,1.63,0,1,0,1.63,1.63,1.63,1.63,0,0,0-1.63-1.63Z"/><path class="cls-7" d="M909.56,374.94h-4v-1h4Zm-8,0h-4v-1h4Zm11.19-1.81h-1v-4h1Zm0-8h-1v-4h1Z"/><path class="cls-7" d="M891.76,376.32a1.88,1.88,0,1,1,1.88-1.88A1.88,1.88,0,0,1,891.76,376.32Z"/><path class="cls-7" d="M891.76,376.57a2.13,2.13,0,1,0-2.13-2.13,2.14,2.14,0,0,0,2.13,2.13Zm0-3.76a1.63,1.63,0,1,1-1.63,1.63,1.63,1.63,0,0,1,1.63-1.63Z"/><path class="cls-7" d="M914.13,360.28a1.88,1.88,0,1,0-1.88,1.88A1.88,1.88,0,0,0,914.13,360.28Z"/><path class="cls-7" d="M914.38,360.28a2.13,2.13,0,1,1-2.13-2.13,2.14,2.14,0,0,1,2.13,2.13Zm-3.76,0a1.63,1.63,0,1,0,1.63-1.63,1.63,1.63,0,0,0-1.63,1.63Z"/><path class="cls-7" d="M152.57,374.5H150.9v-1h1.67Zm-5.67,0h-4v-1h4Zm-8,0h-4v-1h4Zm-8,0h-4v-1h4ZM126,371.35h-1v-4h1Zm0-8h-1v-4h1Zm0-8h-1v-4h1Zm0-8h-1v-4h1Z"/><path class="cls-7" d="M123.66,343.46a1.88,1.88,0,1,1,1.88,1.88A1.88,1.88,0,0,1,123.66,343.46Z"/><path class="cls-7" d="M123.41,343.46a2.13,2.13,0,1,0,2.13-2.13,2.13,2.13,0,0,0-2.13,2.13Zm3.76,0a1.63,1.63,0,1,1-1.63-1.63,1.63,1.63,0,0,1,1.63,1.63Z"/><path class="cls-7" d="M152.46,375.88a1.88,1.88,0,1,0-1.88-1.88A1.88,1.88,0,0,0,152.46,375.88Z"/><path class="cls-7" d="M152.46,376.13a2.13,2.13,0,1,1,2.13-2.13,2.14,2.14,0,0,1-2.13,2.13Zm0-3.76a1.63,1.63,0,1,0,1.63,1.63,1.63,1.63,0,0,0-1.63-1.63Z"/><path class="cls-7" d="M318.32,378.51H315.7v-1h1.62v-1.39h1Zm-6.62,0h-4v-1h4Zm-8,0h-4v-1h4Zm-8,0h-4v-1h4Zm-8,0h-4v-1h4Zm-8,0h-4v-1h4Zm-8,0h-4v-1h4Zm46.62-6.39h-1v-4h1Zm0-8h-1v-4h1Zm0-8h-1v-4h1Z"/><path class="cls-7" d="M258.71,379.89a1.88,1.88,0,1,1,1.88-1.88A1.88,1.88,0,0,1,258.71,379.89Z"/><path class="cls-7" d="M258.71,380.14a2.13,2.13,0,1,0-2.13-2.13,2.13,2.13,0,0,0,2.13,2.13Zm0-3.76a1.63,1.63,0,1,1-1.63,1.63,1.63,1.63,0,0,1,1.63-1.63Z"/><path class="cls-7" d="M319.7,351.47a1.88,1.88,0,1,0-1.88,1.88A1.88,1.88,0,0,0,319.7,351.47Z"/><path class="cls-7" d="M320,351.47a2.13,2.13,0,1,1-2.13-2.13,2.14,2.14,0,0,1,2.13,2.13Zm-3.76,0a1.63,1.63,0,1,0,1.63-1.63,1.63,1.63,0,0,0-1.63,1.63Z"/><path class="cls-7" d="M370.08,383.89h-3v-1h3Zm-7,0h-4v-1h4Zm-8,0h-4v-1h4Zm-8,0h-4v-1h4Zm-8,0h-3.85v-1.14h1v.14h2.85Zm-2.85-5.14h-1v-4h1Zm0-8h-1v-4h1Zm0-8h-1v-4h1Z"/><circle class="cls-7" cx="335.73" cy="358.85" r="1.88"/><path class="cls-7" d="M333.6,358.85a2.13,2.13,0,1,0,2.13-2.13,2.13,2.13,0,0,0-2.13,2.13Zm3.76,0a1.63,1.63,0,1,1-1.63-1.63,1.64,1.64,0,0,1,1.63,1.63Z"/><path class="cls-7" d="M370,385.27a1.88,1.88,0,1,0-1.88-1.88A1.88,1.88,0,0,0,370,385.27Z"/><path class="cls-7" d="M370,385.52a2.13,2.13,0,1,1,2.13-2.13,2.14,2.14,0,0,1-2.13,2.13Zm0-3.76a1.63,1.63,0,1,0,1.63,1.63,1.63,1.63,0,0,0-1.63-1.63Z"/><path class="cls-7" d="M594.89,377.09h-2.45v-1h1.45v-1.56h1Zm-6.45,0h-4v-1h4Zm6.45-6.56h-1v-4h1Zm0-8h-1v-4h1Z"/><path class="cls-7" d="M578.11,378.47a1.88,1.88,0,1,1,1.88-1.88A1.88,1.88,0,0,1,578.11,378.47Z"/><path class="cls-7" d="M578.11,378.72a2.13,2.13,0,1,0-2.13-2.13,2.13,2.13,0,0,0,2.13,2.13Zm0-3.76a1.63,1.63,0,1,1-1.63,1.63,1.63,1.63,0,0,1,1.63-1.63Z"/><path class="cls-7" d="M596.27,357.53a1.88,1.88,0,1,0-1.88,1.88A1.88,1.88,0,0,0,596.27,357.53Z"/><path class="cls-7" d="M596.52,357.53a2.13,2.13,0,1,1-2.13-2.13,2.14,2.14,0,0,1,2.13,2.13Zm-3.76,0a1.63,1.63,0,1,0,1.63-1.63,1.63,1.63,0,0,0-1.63,1.63Z"/><path class="cls-7" d="M701.16,174.28a1,1,0,0,1-.59-.19,1,1,0,0,1-.25-1.42s.65-.93,1.85-2.49a1,1,0,0,1,1.43-.2,1,1,0,0,1,.19,1.44c-1.16,1.51-1.79,2.41-1.79,2.42A1,1,0,0,1,701.16,174.28Z"/><path class="cls-7" d="M812.41,188.92a19.5,19.5,0,0,1-3.45-.31,1,1,0,0,1,.37-2,12.79,12.79,0,0,0,5.7-.08,1,1,0,1,1,.52,2A12.36,12.36,0,0,1,812.41,188.92Zm-9-2.48a1.13,1.13,0,0,1-.53-.14,24.59,24.59,0,0,1-5-4.07,1,1,0,1,1,1.48-1.42,22,22,0,0,0,4.59,3.73,1,1,0,0,1-.52,1.9Zm17.47-.62a1,1,0,0,1-.59-1.86,38.2,38.2,0,0,0,4.66-3.88,1,1,0,1,1,1.41,1.47,39,39,0,0,1-4.9,4.09A1,1,0,0,1,820.86,185.82Zm-26.2-8.11a1,1,0,0,1-.84-.43c-1.07-1.53-2.18-3.27-3.39-5.32a1,1,0,0,1,.36-1.4,1,1,0,0,1,1.4.36c1.18,2,2.26,3.7,3.31,5.18a1,1,0,0,1-.25,1.43A1.07,1.07,0,0,1,794.66,177.71Zm35.25-.4a1.1,1.1,0,0,1-.68-.25,1,1,0,0,1-.09-1.45c1.22-1.4,2.51-3,4-4.76a1,1,0,0,1,1.43-.16,1,1,0,0,1,.17,1.44c-1.46,1.82-2.77,3.41-4,4.83A1,1,0,0,1,829.91,177.31Zm7.81-9.72a1.06,1.06,0,0,1-.63-.21,1,1,0,0,1-.19-1.43l1.22-1.58c.87-1.14,1.73-2.27,2.58-3.37a1,1,0,0,1,1.62,1.25l-2.58,3.36-1.21,1.58A1,1,0,0,1,837.72,167.59ZM788.26,167a1,1,0,0,1-.9-.53l-1-1.85c-.65-1.21-1.31-2.41-2-3.61a1,1,0,0,1,.4-1.39,1,1,0,0,1,1.39.4l2,3.62,1,1.85a1,1,0,0,1-.4,1.39A1.11,1.11,0,0,1,788.26,167ZM706.88,167a1,1,0,0,1-.66-.24,1,1,0,0,1-.13-1.44c1.35-1.6,2.75-3.18,4.15-4.71a1,1,0,0,1,1.51,1.39c-1.39,1.5-2.76,3.06-4.09,4.64A1,1,0,0,1,706.88,167Zm8.44-9.15a1,1,0,0,1-.73-.31,1,1,0,0,1,0-1.44c1.51-1.5,3-2.94,4.58-4.3a1,1,0,0,1,1.44.08,1,1,0,0,1-.08,1.45c-1.5,1.33-3,2.75-4.5,4.22A1,1,0,0,1,715.32,157.82Zm130.08,0a1,1,0,0,1-.79-1.68c1.57-1.87,2.95-3.41,4.24-4.7a1,1,0,0,1,1.45,0,1,1,0,0,1,0,1.44c-1.24,1.24-2.58,2.73-4.11,4.56A1,1,0,0,1,845.4,157.78Zm-63.24-1.62a1,1,0,0,1-.87-.49c-1.17-1.93-2.27-3.61-3.37-5.14a1,1,0,0,1,.23-1.43,1,1,0,0,1,1.42.24c1.14,1.57,2.27,3.29,3.47,5.27a1,1,0,0,1-.35,1.4A1,1,0,0,1,782.16,156.16Zm-57.52-6.61a1,1,0,0,1-.64-1.82c1.71-1.34,3.42-2.59,5.1-3.71a1,1,0,0,1,1.41.28,1,1,0,0,1-.27,1.41c-1.64,1.1-3.31,2.32-5,3.62A1,1,0,0,1,724.64,149.55Zm50.18-3.42a1,1,0,0,1-.75-.32,31.82,31.82,0,0,0-4.48-4,1,1,0,1,1,1.21-1.65,33.49,33.49,0,0,1,4.77,4.27,1,1,0,0,1-.75,1.72ZM735,142.64a1,1,0,0,1-.89-.53,1,1,0,0,1,.4-1.39,54.79,54.79,0,0,1,5.72-2.73,1,1,0,1,1,.77,1.89,56,56,0,0,0-5.51,2.63A1,1,0,0,1,735,142.64Zm29.83-3.71a.91.91,0,0,1-.39-.08,23.76,23.76,0,0,0-5.37-1.51l-.35-.06a1,1,0,0,1-.86-1.16,1,1,0,0,1,1.16-.86l.38.06a26.43,26.43,0,0,1,5.83,1.64,1,1,0,0,1-.4,2ZM746.5,138a1,1,0,0,1-1-.78,1,1,0,0,1,.75-1.24,35.55,35.55,0,0,1,6.32-1,1,1,0,0,1,1.08,1,1,1,0,0,1-.95,1.08,33.36,33.36,0,0,0-6,.94A1.07,1.07,0,0,1,746.5,138Z"/><polygon class="cls-7" points="887.03 129.77 852.28 151.23 853.87 138.69 887.03 129.77"/><polygon class="cls-7" points="887.03 129.77 852.28 151.23 856.64 142.3 887.03 129.77"/><polygon class="cls-7" points="866.7 155.45 845.06 128.96 891.91 124.02 866.7 155.45"/><polygon class="cls-7" points="890.44 124.83 853.7 139.53 856.36 142.79 890.44 124.83"/><path class="cls-8" d="M656.49,141.29s3.33,12,5,14,7,4.86,7,4.86L667,162.63s-9.72-4.95-11.4-9a30.56,30.56,0,0,1-2-6.22c-.26-1.48-1.36-5.18-.81-6.65C653.19,139.78,655.73,139.27,656.49,141.29Z"/><path class="cls-9" d="M656.49,141.29s3.33,12,5,14,7,4.86,7,4.86L667,162.63s-9.72-4.95-11.4-9a30.56,30.56,0,0,1-2-6.22c-.26-1.48-1.36-5.18-.81-6.65C653.19,139.78,655.73,139.27,656.49,141.29Z"/><path class="cls-10" d="M689.84,198.6l2.46-2.29s9.81-.73,10.38.13-9.3,5.52-10.57,5.44S690,199.54,689.84,198.6Z"/><path class="cls-11" d="M671.86,165.41s9.28-2.36,10-.83,10.4,31.73,10.4,31.73l-2.46,2.29s-10.32-25.49-13.31-28.16S670.48,166.46,671.86,165.41Z"/><path class="cls-12" d="M671.86,165.41s9.28-2.36,10-.83,10.4,31.73,10.4,31.73l-2.46,2.29s-10.32-25.49-13.31-28.16S670.48,166.46,671.86,165.41Z"/><path class="cls-11" d="M667.08,159.85a8.68,8.68,0,0,0,1.93-.78,2.55,2.55,0,0,1,1.63-.46c.44.06,4,1.55,3.06,2.21-.31.21-1.08-.16-1.38-.27s-.88-.37-1.3-.56c.38,0,2.31.8,2.11,1.25-.36.79-2.31-.27-2.76-.52.34.05,1.55.5,1.55.94,0,.7-1.44.12-1.75,0a2.19,2.19,0,0,0-.65-.32,2.63,2.63,0,0,0-.88.16,5.16,5.16,0,0,1-1.52,0c-.29,0-1,0-1.13-.21a1.1,1.1,0,0,1,.19-1.09A2.07,2.07,0,0,1,667.08,159.85Z"/><path class="cls-13" d="M667.08,159.85a8.68,8.68,0,0,0,1.93-.78,2.55,2.55,0,0,1,1.63-.46c.44.06,4,1.55,3.06,2.21-.31.21-1.08-.16-1.38-.27s-.88-.37-1.3-.56c.38,0,2.31.8,2.11,1.25-.36.79-2.31-.27-2.76-.52.34.05,1.55.5,1.55.94,0,.7-1.44.12-1.75,0a2.19,2.19,0,0,0-.65-.32,2.63,2.63,0,0,0-.88.16,5.16,5.16,0,0,1-1.52,0c-.29,0-1,0-1.13-.21a1.1,1.1,0,0,1,.19-1.09A2.07,2.07,0,0,1,667.08,159.85Z"/><polygon class="cls-10" points="683.15 143.81 685.33 144.71 677.84 162.79 675.63 161.6 683.15 143.81"/><rect class="cls-10" x="662.16" y="161.29" width="14.27" height="2.22"/><path class="cls-10" d="M636.92,151c1.91-1.09,2.23-2.3,1.17-6.29a8.37,8.37,0,0,1,4.37-9.23c2-.81,3.67-1.16,4.86-3.25s-1.06-6.53,2.7-9.82c2.75-2.39,6.68-.48,6.68-.48.85-.47,1.2,4.47,1.26,8.18-4.77,7.3-3.41,16.84-1.67,25a4.42,4.42,0,0,0,.17.55c-.37,6.32-.67,11.56-.67,11.56s-11.46,6.49-19.26.93S633.1,153.17,636.92,151Z"/><path class="cls-10" d="M670.62,197.1l2.91,1.67s3.57,9.17,2.92,10-8-7.28-8.3-8.51S669.77,197.54,670.62,197.1Z"/><path class="cls-11" d="M666.91,164.87s18.7,1.31,20.45,3-14.13,30.75-14.13,30.75l-2.61-1.5s3.93-13.83,5-17,3-7,2.62-7.56-19.21,2.32-19.06-3S666.91,164.87,666.91,164.87Z"/><path class="cls-11" d="M657.69,133.32s-2,5.35-.76,9.34l-6.55-1.59s2.68-8.95,3.82-10.47S657.69,133.32,657.69,133.32Z"/><path class="cls-12" d="M657.69,133.32s-2,5.35-.76,9.34l-6.55-1.59s2.68-8.95,3.82-10.47S657.69,133.32,657.69,133.32Z"/><path class="cls-11" d="M658.37,126.35s2.54,1.22,3.15,2.25.08,2.44.13,3.37a13.52,13.52,0,0,1,.16,2.56c-.14.23-1.07,0-1.23.2s-1.36,1-1.74,1.83-.89.93-1.77.5-4.28-4.91-4.32-7S655.85,125.49,658.37,126.35Z"/><path class="cls-10" d="M656.21,123.5a17.56,17.56,0,0,1,1.31,3.32c.13.94-.77,3.72-1.31,4.09s-.08-3.11-1.43-2,.08,3.07,0,3.47a2.5,2.5,0,0,1-2.09,1.85c-1.39.12-3.68-6.8-2.17-8.52S654.62,123.5,656.21,123.5Z"/><path class="cls-14" d="M648.36,159.12l8.67-.66s4.52,5,9,5h15.25a27.39,27.39,0,0,1-4.44,11.38s-14.54,1.07-21.59.49S641.45,167,648.36,159.12Z"/><path class="cls-15" d="M647.55,160.14c.25-.34.51-.68.81-1l8.67-.66s4.4,4.9,8.8,5C660.51,164,650.36,165.21,647.55,160.14Z"/><path class="cls-16" d="M677.22,164.52c-2.21-.21-4.35-.74-6.53-1h9.56C679.31,164,678.84,164.68,677.22,164.52Z"/><path class="cls-8" d="M651.21,138.05a36.29,36.29,0,0,0,5.33,1.71s2.81,6.19,3.9,7.86-2.77,8.08-3,10.84c0,0-2.31,2.22-9.34.86C648.11,159.32,646.28,141.94,651.21,138.05Z"/><path class="cls-9" d="M650.15,141.75a3.36,3.36,0,0,1,3.93,1.23c.73,1.51,0,4.2.06,5.83a32.72,32.72,0,0,0,.64,5.68,11.75,11.75,0,0,0,2.29,4.24c-.9.55-3.51,1.64-9,.59,0,0-1.12-10.6.74-17.09C649.36,142.06,649.83,141.89,650.15,141.75Z"/><path class="cls-11" d="M665.71,159.85a8.31,8.31,0,0,0,1.93-.78,2.6,2.6,0,0,1,1.64-.46c.44.06,4,1.55,3.06,2.21-.31.21-1.08-.16-1.39-.27s-.88-.37-1.3-.56c.39,0,2.32.8,2.11,1.25-.35.79-2.31-.27-2.76-.52.35.05,1.55.5,1.55.94,0,.7-1.43.12-1.74,0a2.24,2.24,0,0,0-.66-.32,2.58,2.58,0,0,0-.87.16,5.16,5.16,0,0,1-1.52,0c-.3,0-1,0-1.14-.21a1.13,1.13,0,0,1,.19-1.09A2.17,2.17,0,0,1,665.71,159.85Z"/><path class="cls-8" d="M666.31,159.76l-.76,2.87s-18.77-2.18-19.21-5.51.77-18.83,5.29-17.22.06,12.85.77,13.72S666.31,159.76,666.31,159.76Z"/><path class="cls-10" d="M656,122.2a3.76,3.76,0,0,1,4.57.2c2.33,1.88,2.25,4.71,4.17,4.46,0,0-1.26,3.28-4,2.5S655.06,124.16,656,122.2Z"/><path class="cls-13" d="M190.49,154.44a3.27,3.27,0,0,1-1.34-1.09,1.94,1.94,0,0,0-.5-.63A4.63,4.63,0,0,1,188,152a1.55,1.55,0,0,0-.69-.6c-.37-.11-.26.37-.14.68s1.07.95.95,1.31-1.22-.46-1.44-.63c-.51-.39-.45-.87-.69-1.41-.14-.31-.3-.41-.5-.06s0,.57.07.82a3.52,3.52,0,0,0,.93,1.43,4,4,0,0,1-1-1.24c-.14-.27-.55-1.52-1-1.33-.89.38.84,2.79,1.32,3.05a4.58,4.58,0,0,1-1.09-1.19c-.19-.25-.61-.88-.82-.34-.3.79,1.17,1.71,1.76,2.24a5.84,5.84,0,0,1-1.25-.89c-.53-.43-.66.11-.19.64a8.56,8.56,0,0,0,.77.67,5.17,5.17,0,0,0,3.15,1.13c.48,0,1.29.62,1.63.38C190.43,156.24,190.38,155.11,190.49,154.44Z"/><path class="cls-17" d="M189.83,153.11S200,155.93,201,155.87s3.4-9,4.35-13.4c.09-.41,1.44-.43,3-1.72.63-.53,2.49.49,3.12,0a4.24,4.24,0,0,1,.8,4.7c-2.31,5.11-4.3,14.9-9.61,15-7,.14-14.17-3.53-14.17-3.53Z"/><path class="cls-13" d="M187.65,154.33s.41-.7.48-.9c.12-.36-.82-1-.95-1.31s-.23-.79.14-.68a1.55,1.55,0,0,1,.69.6,4.63,4.63,0,0,0,.64.68,1.94,1.94,0,0,1,.5.63,2.26,2.26,0,0,0,.43.49A5.48,5.48,0,0,1,187.65,154.33Z"/><path class="cls-10" d="M185.06,185.38s-.94,4.36-1.82,4.77-10.05-1.85-10.58-2.88.22-2.12,2.18-2c1.76.06,2.92.71,4.35.5,1.25-.18,2.48-2.57,2.48-2.57Z"/><path class="cls-10" d="M200.65,195.3s2.35,3.8,2,4.7-8.52,5.65-9.62,5.27-1.31-1.68.15-3,2.6-1.5,3.49-2.65c.77-1,0-3.57,0-3.57Z"/><path class="cls-8" d="M214.38,163.1s-3.7,1.92-5.42,1.7-16.5.94-18.23,2.36,5.34,29.91,5.34,29.91l5.85-1s-2.09-20.83-1.74-21,9.19-.11,24.26-.11c3.68,0,7.78-7.74,3.13-13.14Z"/><path class="cls-9" d="M193.28,169.47a16.84,16.84,0,0,0,1.64-4,105,105,0,0,1,14-.68c1.72.22,5.42-1.7,5.42-1.7l.85-.08c-1.06,1.51-2.3,2.84-3.86,3.18-1.86.41-3.81.52-5.65,1-3.18.84-6.34,2.51-7.76,5.68A86.32,86.32,0,0,0,193.25,185c-1-4.32-1.95-8.85-2.52-12.44C191.85,172,192.66,170.49,193.28,169.47Z"/><path class="cls-8" d="M212.86,159.92s-17.59,1.05-19.27,2.7-13,21.13-13,21.13l4.66,3.36s9.27-13.67,13.74-19a6.61,6.61,0,0,1,4-2.27c1.9-.32,4.68-.74,6.76-.86a7.58,7.58,0,0,0,5.08-1.92Z"/><path class="cls-11" d="M208.34,132.76a7.15,7.15,0,0,0,1.45-1.17c.43,1.69,1.45,4.79,3.39,6.24,0,0-3.45,1.92-6.5,1.61,0,0-.12-4.08-1-6A6,6,0,0,0,208.34,132.76Z"/><path class="cls-12" d="M208.34,132.76a7.15,7.15,0,0,0,1.45-1.17c.43,1.69,1.45,4.79,3.39,6.24,0,0-3.45,1.92-6.5,1.61,0,0-.12-4.08-1-6A6,6,0,0,0,208.34,132.76Z"/><path class="cls-11" d="M205.38,122.26s-4.51.28-5.48,1.56a6.2,6.2,0,0,0-.22,5.55c.78,1.38-.24,3.72-.08,4.26s1.55.24,1.66.39,1.2,2.78,3.14,2.55c2.73-.32,5.28-3.59,5.84-5.53S209.51,121.71,205.38,122.26Z"/><path class="cls-10" d="M197.94,125.31a5.06,5.06,0,0,0,.57-1.17,7.5,7.5,0,0,1,0-.82c.2-.82.12-1.34,1.74-2.63a6.14,6.14,0,0,1,5.33-.79,4.83,4.83,0,0,1,1.69.9c.15.13.6.45.59.64s-.54.62-.69.8a8.18,8.18,0,0,0-.62,1.08c-1.27,2.2-3.53,4.9-6.35,3.61a11.46,11.46,0,0,1-1.09-.59,5.93,5.93,0,0,0,.47,2.89,2.56,2.56,0,0,1-1.32-1A3,3,0,0,1,197.94,125.31Z"/><path class="cls-10" d="M206.41,121.91a3.64,3.64,0,0,1,1.89-.8,2.48,2.48,0,0,1,2.59,1.34,10.27,10.27,0,0,1,.92,1.81,7.86,7.86,0,0,1,.63,3,7.29,7.29,0,0,1-.66,3.32c-.46.92-1.58,2.2-2.38,2.19-.32,0-1.46-1.8-1.58-2.34s.12-.61.42-1c.5-.61.95-1.61.18-2.2-1.1-.85-2.15.13-2,1.84,0,0-.15,1-.48,1S202.69,126.26,206.41,121.91Z"/><path class="cls-18" d="M230.47,163.49s-5.25,5.66-19.09,1.76a30,30,0,0,0-1.93-6.86c-1.47-3.4-3.85-10.09-4.32-13.71-.53-4.09,1.5-6.2,1.5-6.2s2.61,1.94,5.79-1.35a15.54,15.54,0,0,1,10.85,8C227.27,152.34,230.47,163.49,230.47,163.49Z"/><path class="cls-17" d="M211.46,143c0-.17.08-.35.12-.53,3.32,1.62,2.9,4.82,2.1,9.64-.61,3.71-2.39,9.57-2.74,10.88a28.76,28.76,0,0,0-1.49-4.6c-.68-1.57-1.55-3.84-2.34-6.19a24.26,24.26,0,0,0,2.74-5.71C210.27,145.28,211.12,144.24,211.46,143Z"/><path class="cls-19" d="M188.84,151.05l-11.63-6.94a21.84,21.84,0,0,0-5.44,9.82l13.2,6.19S187,155.27,188.84,151.05Z"/><path class="cls-20" d="M179.85,155.39a12.1,12.1,0,0,0,6.94-5.57l2.05,1.23c-1.81,4.22-3.87,9.07-3.87,9.07l-9.64-4.52A9.58,9.58,0,0,0,179.85,155.39Z"/><path class="cls-11" d="M188.88,158.2a3.31,3.31,0,0,1-1.72-.22,1.93,1.93,0,0,0-.76-.27,4.64,4.64,0,0,1-.9-.24,1.71,1.71,0,0,0-.9-.14c-.38.1,0,.45.23.65s1.42.24,1.51.61-1.29.25-1.56.23c-.64-.07-.84-.51-1.33-.83-.28-.19-.47-.19-.46.21s.29.49.5.66a3.51,3.51,0,0,0,1.55.72,3.94,3.94,0,0,1-1.51-.52c-.26-.15-1.27-1-1.55-.6-.55.79,2.2,1.92,2.74,1.88a4.65,4.65,0,0,1-1.55-.43c-.3-.11-1-.42-.88.14.17.83,1.9.83,2.67,1a5.65,5.65,0,0,1-1.52-.09c-.68-.08-.5.44.18.64a10.07,10.07,0,0,0,1,.17,5.24,5.24,0,0,0,3.27-.72c.42-.21,1.42-.15,1.58-.53C189.78,159.75,189.13,158.82,188.88,158.2Z"/><path class="cls-18" d="M188.6,157.74l-.33,3.91S205,163,207,161.77a9,9,0,0,0,3.45-5c1.21-3.57,6-13.43,1.69-14.93-1.36-.47-3.15-.46-4,1.31-2,4-4.19,12.76-4.76,13.14C202.49,156.81,188.6,157.74,188.6,157.74Z"/><path class="cls-10" d="M286.41,235.93s2.39,7,3.8,10.14c7.85,17.32-6.68,15.1-12.2,14.29s-11.82-2.9-11.48-7.37c.24-3,2.08-3.38,2.83-4.39s-.71-2.68-.08-5.18,4.82-3,5.64-3.69,2.49-2.59,1.68-6.21-1.17-5.55,1.17-7.9,6-1.33,6-1.33Z"/><path class="cls-11" d="M313.49,262.83c-.5-.38-2.44.71-3.84,1.17a15.78,15.78,0,0,1-3.65.35,12.42,12.42,0,0,1-.27,2c.88,0,1.56.21,2.21.16s2-.23,2.46-.32a2.25,2.25,0,0,1,1.57.18c1.56,1.29,2.43,1.39,2.64.92,0-.07-1.23-1.18-1.64-1.63.68.61,2.36,1.83,2.71,1.45s-1.3-1.71-2-2.29c.7.6,2.5,2.1,2.93,2C317.84,266.48,314,263.22,313.49,262.83Z"/><rect class="cls-10" x="300.72" y="266.61" width="19.55" height="2.51"/><path class="cls-18" d="M307.54,264l-.68,2.85s-9-1-12.07-2.4-6.13-8.71-6.13-8.71l2.34-9.18s4.53,12,6.11,13.46S307.54,264,307.54,264Z"/><rect class="cls-21" x="304.03" y="232.38" width="41.78" height="26.66" rx="1.84"/><path class="cls-10" d="M306.2,257.2v-23a1.84,1.84,0,0,1,1.84-1.83h-2.17a1.83,1.83,0,0,0-1.84,1.83v23a1.83,1.83,0,0,0,1.84,1.83H308A1.84,1.84,0,0,1,306.2,257.2Z"/><path class="cls-10" d="M325,265.62s.85-8.1-2.84-10.84c0,0-.85-.69.54-1.48s5.21-1.7,6.52.67,2.17,6.53,1.62,11.65Z"/><rect class="cls-21" x="272.02" y="284.93" width="1.73" height="45.54"/><rect class="cls-21" x="304.03" y="284.93" width="1.73" height="45.54"/><rect class="cls-10" x="267.38" y="282.24" width="43.01" height="4.45"/><path class="cls-10" d="M290.73,310.09s-4.39,3.82-4.36,4.38,7.51,13.28,8.81,13.32,1.61-2.17,1.4-3-2.62-13-2.62-13Z"/><path class="cls-10" d="M284.36,312.46s-4.27,4-4.23,4.5S288,330,289.34,330s1.54-2.21,1.31-3-3-12.89-3-12.89Z"/><path class="cls-14" d="M287.12,268.78s5.55,2.64,11.93,5.13c4.05,1.58,9.71,3.65,9.52,8-.13,3.16-12.89,33.7-12.89,33.7l-5.79-2.9s10.61-25.7,10.42-27.45-1.41-.2-11.91-1.15-13.67-2.95-13.6-7.93,2.82-11.94,7.06-13.71S287.12,268.78,287.12,268.78Z"/><path class="cls-15" d="M287.12,268.78s2.12,2.7,8.5,5.18c4.05,1.58,9.08,4.47,9.07,7.26,0,3.17-11.88,32.95-11.88,32.95l-2.92-1.46s10.61-25.7,10.42-27.45-1.41-.2-11.91-1.15-13.67-2.95-13.6-7.93,2.82-11.94,7.06-13.71S287.12,268.78,287.12,268.78Z"/><path class="cls-14" d="M284.25,265s1.68,7,5.69,8.72,13.21,3.58,13.2,8c0,3.18-13.73,34.58-13.73,34.58l-7-3.29s9.3-25.41,9.06-27.15.69-.89-9.83-1.52-11.93-2.64-12-7.62S276,265,276,265A10.77,10.77,0,0,1,284.25,265Z"/><path class="cls-12" d="M287,234.72s-1.66,6.8,1.42,10.28c0,0,4.11,5.54-2.37,6.48s-5.64-7.56-5.64-7.56,1.1-9.38-.58-13.44C279.82,230.48,284,232.8,287,234.72Z"/><path class="cls-11" d="M282.63,225.1s8.89.45,8.94,2.65-.74,3.64-.45,5.57c.64,4.13-1.76,8.68-2.82,8.87-1.62.29-7.14-2.15-8-5.49S279.21,223.77,282.63,225.1Z"/><path class="cls-11" d="M291.1,264.41s1.86.24,2.25.24,5.54-2.89,6.09-2.49,5.77,4,5.61,4.74-1.61.29-4.38-2c0,0,3.69,2.61,3,3.24s-3.92-2.29-3.92-2.29,3.32,2.47,2.53,3-3.72-2.4-3.72-2.4,2.29,2.21,2,2.58-1.77-.26-3.35-1.74c0,0-.29-.16-1.13.29s-6-.42-6-.42Z"/><path class="cls-10" d="M292.33,231.93s-6.19,1.41-8.21-3.34c-1.6-3.75-1.05-4.21-1.05-4.21s3.42-2.66,7.44,1C293.2,227.75,292.33,231.93,292.33,231.93Z"/><path class="cls-10" d="M283.59,224.28s3.29,2.9,1.46,5.64c-1.64,2.48-.55,3.81-.9,5.47a1.83,1.83,0,0,1-1-1.13c-.17-.78-.42-2.73-1.46-2.45s-2,1.56,0,3.2a4,4,0,0,1-.32,4s-5.31-4.56-3.77-9.69S283.59,224.28,283.59,224.28Z"/><path class="cls-18" d="M287.74,244.07s.41,3.22-.75,3.8-5.27-5.48-5.27-5.48-5.6,2.35-6.87,3.38.58,10.9.58,10.9S271.53,268.5,272,271s17.54-.5,17.54-.5,1.64-12.07,2.28-13.86,1.45-2.86.63-5.48c-1.16-3.69-1.47-4.63-1.47-4.63A18,18,0,0,0,287.74,244.07Z"/><path class="cls-17" d="M277.58,254.79c-1.28-1.71-.52-4.58-1.86-6.34-.41-.54-.83-1.06-1.26-1.57-.33,2.84,1,9.79,1,9.79S271.53,268.5,272,271s17.54-.5,17.54-.5,1.45-10.62,2.15-13.42c-.44.65-3.89,4.85-7.68,4.27C281.9,261.05,280.16,258.26,277.58,254.79Z"/><path class="cls-10" d="M280.58,233a1.55,1.55,0,0,0,1,1.62c.46.12.42,1.56.79,3,.7,2.75.25,4.63-1.8,5.43a22.36,22.36,0,0,0-5.92,2.69c-2.37,1.66-.85-5.27,2.14-7S280.58,233,280.58,233Z"/><path class="cls-10" d="M334.27,269.12H321.83a1,1,0,0,1-.91-1.46l.74-1.47a1,1,0,0,1,.9-.55h11a1,1,0,0,1,.9.55l.73,1.47A1,1,0,0,1,334.27,269.12Z"/><rect class="cls-22" x="244.23" y="269.12" width="109.06" height="2.92"/><rect class="cls-22" x="248.26" y="270.37" width="1.27" height="60.11"/><rect class="cls-22" x="347.99" y="270.37" width="1.27" height="60.11"/><path class="cls-18" d="M292.68,264.27l-.32,3.67s-21.66.23-24.93-.19-4.74-4.75-2.63-8.54,8.38-13.66,11.12-13.87,4.32,3.53,2.05,7.59-6.38,8-5.48,8.65S292.68,264.27,292.68,264.27Z"/><polygon class="cls-21" points="551.11 250.24 553.6 286.19 581.04 287.9 580.28 251.22 551.11 250.24"/><path class="cls-21" d="M578.51,249.32c-2.22-.67-7.28,19.35-6.49,22.56.54,2.21,19.21,1.41,19.21,1.41l.2-3.84s-11.85-1.35-11.79-2.32,3.5-7.37,3.5-7.37S580.75,250,578.51,249.32Z"/><path class="cls-12" d="M569.73,237.52l-5,.78s1.41,4.47-.76,8.29c0,0,3.62,3.92,6.14,2.88a3,3,0,0,0,1.69-3.83S569,243.47,569.73,237.52Z"/><path class="cls-11" d="M563.88,229.8s7.84-.9,8.38.42.66,5,1.17,5.81,1.43,1.73,1.09,2.23-.73.38-.94,1-.14,3.78-1.17,4.26-6.32.19-8.23-2.82S560.09,230.08,563.88,229.8Z"/><path class="cls-10" d="M561.91,230.54l5.2,2.4a11.72,11.72,0,0,0,1.33,5.68s-.46.72-1,.31a1.87,1.87,0,0,1-.92-1.37c-.12-.76-.57-2.79-1.93-1.79s.07,2.19.77,2.48c0,0,1.1,3.95-1,3.67,0,0-1.93-1.22-3.6-6S560.62,229.65,561.91,230.54Z"/><path class="cls-10" d="M574.53,228.81s1.86,2.67-2.46,4.46-10.53-2.92-10.53-2.92.16-2.34,3.6-3.35c2.58-.75,5-.64,6.31.85C573.68,230.38,574.53,228.81,574.53,228.81Z"/><rect class="cls-21" x="555.97" y="289.83" width="1.5" height="39.5"/><rect class="cls-21" x="583.73" y="289.83" width="1.5" height="39.5"/><rect class="cls-10" x="551.95" y="286.19" width="37.3" height="5.17"/><path class="cls-21" d="M564.48,245.27s-7,1.95-7.3,2.13c0,0,.77,10.15.66,12.89s-1.22,14.43-1.22,14.43h21.81s-.26-11.9-.15-14.52c0,0-.7-8.84.23-10.88a57.69,57.69,0,0,0-6.74-3.68s0,2.88-1.5,3.66S564.48,245.27,564.48,245.27Z"/><path class="cls-23" d="M578.28,260.2s0-1.22-.08-2.86a27.37,27.37,0,0,1-1.56,4.26c-1.43,2.94-4.95,7-8.69,6.57s-6.76-3.77-7.7-7.42c-.7-2.74-.36-5.73-1.28-8.41a11.4,11.4,0,0,0-1.65-3c.21,3.08.6,9,.52,11-.12,2.73-1.22,14.43-1.22,14.43h21.81S578.17,262.82,578.28,260.2Z"/><path class="cls-10" d="M578,272.64l-5-8.4s-1.18-.7-1.19.74l5.72,8S578.91,274.59,578,272.64Z"/><path class="cls-11" d="M576.07,270.49a5.26,5.26,0,0,0-1.65-1.85c-.81-.41-4.45,1.07-4.71,1.13a11.11,11.11,0,0,1-2.9.57,19.71,19.71,0,0,1-.49,2.5c.85.32,3.58-.21,3.93-.26a2.56,2.56,0,0,1,1.88.53c.57.4,1.11.74,1.52.66s0-.58-.26-.85l0,0c1,1.23,1.54,1.05,1.74.79s-1.1-1.47-1.23-1.63-1.27-1-1.27-1a5.19,5.19,0,0,1,1.46,1c.13.13,1.49,2.2,2,1.57s-.67-1.69-1.13-2.35a5.12,5.12,0,0,0-1.51-1.23c.55-.07,1.5,1,1.82,1.34s1.14,2.1,1.8,1.66S576.45,271,576.07,270.49Zm-2.78,2.32a10.76,10.76,0,0,0-1.08-.81A5.56,5.56,0,0,1,573.29,272.81Z"/><path class="cls-11" d="M575.88,269s1.35.52,1.58,1.12-.13,1-.45.82Z"/><path class="cls-21" d="M557.18,247.4a12.39,12.39,0,0,0-3.39,3.66c-1.09,2.05-7,17.61-6.23,20.82.54,2.21,19.21,1.41,19.21,1.41l.2-3.84s-11.85-1.35-11.79-2.32,3.5-7.37,3.5-7.37S560.56,251.89,557.18,247.4Z"/><path class="cls-10" d="M587.34,323s6.25,1.69,8.84,2.52c2.15.68,1.87,2.61-.43,3.51s-4.29.6-4.89-.11-1.9-.32-2.38,0-5-.33-5.26-1.23.14-4.46.14-4.46Z"/><path class="cls-10" d="M577.23,323.42s6.1,2.2,8.6,3.24c2.09.86,1.66,2.76-.71,3.47s-4.33.24-4.87-.52-1.86-.47-2.37-.23-4.91-.73-5.14-1.65.94-5.23.94-5.23Z"/><path class="cls-8" d="M590.87,287c-.69-2.56-13.43-10.29-14.47-12.62H566.12a16.81,16.81,0,0,0-2.73,7.87c-.65,6.53,5.39,4.29,11.38,4.51s8.4,3.9,8.56,5.54-.92,31.29-.92,31.29l8.13-.05S591.28,288.48,590.87,287Z"/><path class="cls-9" d="M585.08,323.52s2.7-35.43,2.09-36.34c-1.85-2.82-10.88-9.45-14-12.53l-7.07-.32a16.81,16.81,0,0,0-2.73,7.87c-.65,6.53,5.39,4.29,11.38,4.51s8.4,3.9,8.56,5.54-.92,31.29-.92,31.29Z"/><path class="cls-8" d="M585.68,287.78c-.48-2.25-13.77-10.11-16.56-13.11l-10.9-.75a9.84,9.84,0,0,0-2.64,6.3c.06,6.28,4.79,7.79,10.78,8,6.9.21,10.45,1.1,10.44,2.74s-4.26,32.47-4.26,32.47l8.06.41S586,289.32,585.68,287.78Z"/><path class="cls-11" d="M643.31,238.55a47.87,47.87,0,0,0,2.52-4.78c.66-1.67,3.35-7.47,4.2-6.86s-1.54,5.47-1.54,5.47,2.12-6.09,3.26-5.75-2,6-2,6,2.56-5.35,3.22-4.83.15,1.7-2,5.66c0,0,1.87-3.4,2.58-2.6s-1.57,3.92-2.4,4.65-4.75,3.85-5.69,5.16C645.45,240.68,643.35,240,643.31,238.55Z"/><path class="cls-24" d="M647.08,234.55s2.81-1.59,3.59-1,0,1.27-2.92,2.21c0,0-1,1.3-1.68,1.41A2,2,0,0,1,647.08,234.55Z"/><path class="cls-11" d="M588.77,235.87a12.81,12.81,0,0,1-1.09-2.79c0-.63.32-1.31.34-2.17s1.18-2.86.93-3.43-1-.43-1.63.93-.45,2.2-1,1.81a14.94,14.94,0,0,1-2.31-2.76c-.43-.71-1.8-2.09-2.16-1.86s-.46.59,1.95,4c0,0-2.73-4.1-3.54-3.36-.56.52,2.11,3.52,2.49,4,0,0-2.47-3.1-3.2-2.37s2.7,3.27,2.7,3.27-2.53-2-2.87-1.42,1.13,1.9,2.58,2.71,1.83,1,2.2,1.58a29.16,29.16,0,0,1,1.28,2.72S587.75,237.28,588.77,235.87Z"/><path class="cls-12" d="M619.32,221.86l-5.16.79s-.29,9.64-4.38,10.41c0,0-1.45,15.79,4,14.48s8.3-15,8.3-15S617.27,231.2,619.32,221.86Z"/><path class="cls-11" d="M619.73,214.67s-5.57-2.29-7.79-.9-2,6.2-2.36,8.4c-.51,3.44,1,6.8,1.87,7.13s7.87-1.56,9-6.6S621,215.53,619.73,214.67Z"/><path class="cls-10" d="M611.27,319.81s.75,4.63.19,5.71-12.32.59-13-.18.47-2.09,1.09-2.4,7-3.1,7-3.1Z"/><path class="cls-10" d="M626.45,319.81h-4.1a21.52,21.52,0,0,0,0,4.21c.27.77,4.14,5.55,6.14,5.55,1.09,0,2.43,0,2.64-1,.18-.81-.62-2.51-1.28-3.43C628.4,323.17,626.45,319.81,626.45,319.81Z"/><path class="cls-10" d="M618.72,223.43a10.61,10.61,0,0,1-3.28,1.2c-1.29.09-2.09-1.44-3.91-1l-2,.46s-1,6.52,1.49,6.33,6.64-2.76,8.11-4.51a3.22,3.22,0,0,0,2.52-1.51c1-1.5,2.31-6.17,1.45-9s-4.67-3.93-6.27-2.61a5.27,5.27,0,0,0-3.53-.89c-2.32.12-2.8,1.35-3.78,2.09s-2,.73-2.28.1c0,0-.69,1.17.56,3.17s2.69,1.7,4.63,1.25a14.24,14.24,0,0,0,4.37-2.37s-.1,4,.9,5.49c0,0,.37.16.51,0s0-2.26,1.17-1.79S619.73,222.64,618.72,223.43Z"/><path class="cls-19" d="M611.1,225.37a6.22,6.22,0,0,0,3.08.14s-.91,1.19-1.91,1A1.31,1.31,0,0,1,611.1,225.37Z"/><path class="cls-19" d="M620.48,231.06l-4.77,2.59L612,231.42a34,34,0,0,0-1.35,12.12c.55,6.45,1.59,11.08,6,5.09S622.56,233.15,620.48,231.06Z"/><path class="cls-19" d="M620.48,231.06l-4.77,2.59L612,231.42a34,34,0,0,0-1.35,12.12c.55,6.45,1.59,11.08,6,5.09S622.56,233.15,620.48,231.06Z"/><path class="cls-10" d="M614.81,236.6s-2.57,13.89-2.35,14.16c.14-.18,1.7,3.77,2.6,0,.71-2.93.79-13.84.9-14s1.34-1.44,2.13-2.15c.51-.47,1-.95,1.49-1.44.12-.23.24-.46.35-.7l-.21.49a11.26,11.26,0,0,1,1-1.62,2.6,2.6,0,0,0-.25-.31l-4.77,2.59L612,231.42s-.11.33-.27.92a17.73,17.73,0,0,1,1,1.62C613.16,234.63,614.81,236.6,614.81,236.6Z"/><path class="cls-10" d="M605,256.92l14.66-.28s2.23,3.66,2.73,14.21c.34,7.22.63,9.22,1.35,18.76.49,6.49,2.79,31.32,2.79,31.32h-7.79s-3.3-28.34-3.47-29.88c-.06-.55-2-15.54-2-15.54s.32,13.58.32,15.16.34,29.46.34,29.46h-8.21s-.92-23.71-1-29.14C604.62,282.21,603.87,259.76,605,256.92Z"/><path class="cls-14" d="M612,231.42s-5.16,1-7.15,1.66c0,0,.63,11.92-1.37,14.91l-.9,26s11.3-.14,11.66-14.21.34-14.7.34-14.7Z"/><path class="cls-10" d="M613.59,246.66a.44.44,0,0,1-.44.43.44.44,0,0,1-.43-.44.44.44,0,1,1,.87,0Z"/><path class="cls-10" d="M613.31,250.93a.42.42,0,0,1-.44.42.44.44,0,0,1-.43-.44.45.45,0,0,1,.45-.43A.44.44,0,0,1,613.31,250.93Z"/><path class="cls-10" d="M613,255.19a.43.43,0,0,1-.86,0,.43.43,0,1,1,.86,0Z"/><path class="cls-10" d="M612.76,259.45a.43.43,0,0,1-.44.42.44.44,0,0,1-.43-.44.42.42,0,0,1,.44-.42A.44.44,0,0,1,612.76,259.45Z"/><path class="cls-14" d="M627.52,234.36l-7-3.3-5.91,14-1.26,16.33s.15,14.35,12.4,12.58l-1-26.34S624.62,238,627.52,234.36Z"/><path class="cls-14" d="M647.22,240.19,643,237.1s-7.89,12.46-8.35,12.09-4.22-13.49-7.08-14.83c0,0-1.44,1-2.26,4.06a34.19,34.19,0,0,0-.55,9s7.44,11,10.07,10.65S647.22,240.19,647.22,240.19Z"/><path class="cls-14" d="M589,234.36l-4.83,1.92s6.61,23.89,10.42,21.79,8.87-9.54,8.87-9.54a17.72,17.72,0,0,0,2-5.94c.48-3.19.18-7.56-.58-9.51,0,0-3.36,2-6.18,7.66s-3.67,7.22-3.92,6.87S589,234.36,589,234.36Z"/><path class="cls-25" d="M611.76,232.21c0,.12,1.25,4.6,1.25,4.6l2.7-2,2.29,2.14,2.42-5.13-.4-.5-2.89,1.57-1.42,1.28-3.16-2.4-.18-.12Z"/><polygon class="cls-19" points="615.71 233.29 612.38 230.75 611.58 231.5 612.87 236.05 615.71 233.92 618.26 236.31 620.73 231.18 619.49 229.88 615.71 233.29"/><rect class="cls-26" x="580.31" y="272.09" width="24.86" height="1.51"/><rect class="cls-10" x="578.51" y="252.29" width="28.47" height="20.55" rx="1.48"/><path class="cls-27" d="M579.31,271.36V253.78a1.49,1.49,0,0,1,1.48-1.49h-1.31a1.49,1.49,0,0,0-1.48,1.49v17.58a1.48,1.48,0,0,0,1.48,1.48h1.31A1.48,1.48,0,0,1,579.31,271.36Z"/><path class="cls-19" d="M594.17,262.57a1.43,1.43,0,1,1-1.43-1.43A1.43,1.43,0,0,1,594.17,262.57Z"/><rect class="cls-10" x="620.88" y="270.92" width="18.73" height="2.68"/><polygon class="cls-10" points="615.82 253.54 621.88 272.36 622.83 272.01 616.76 253.19 615.82 253.54"/><path class="cls-10" d="M649.38,319.4s-5,2.46-7.66,3.56c-2.22.92-1.76,3,.77,3.7s4.6.25,5.18-.55,2-.5,2.52-.24,4.75-.72,5-1.69-.8-5.28-.8-5.28Z"/><path class="cls-14" d="M675.38,273.1l-8.48.11s-20.73,7.73-23.44,9.77,4.45,37.43,4.45,37.43l7-.74s-1.66-31.67-.31-33,23.3-3.36,24.68-3.77S678.75,277.6,675.38,273.1Z"/><path class="cls-15" d="M675.38,273.1l-8.48.11s-20.73,7.73-23.44,9.77,4.45,37.43,4.45,37.43l7-.74s-1.66-31.67-.31-33,23.3-3.36,24.68-3.77S678.75,277.6,675.38,273.1Z"/><polygon class="cls-21" points="692.57 254.21 683.97 288.62 680.4 287.73 687.81 253.02 692.57 254.21"/><rect class="cls-21" x="653.3" y="289.62" width="1.43" height="37.56"/><rect class="cls-21" x="679.69" y="289.62" width="1.43" height="37.56"/><rect class="cls-10" x="649.47" y="286.16" width="35.47" height="4.91"/><path class="cls-12" d="M673.12,237l-4.86,1s1.39,6,0,9.28c0,0,2.65,1,7.12-2.35C675.38,245,672.62,242.65,673.12,237Z"/><path class="cls-11" d="M673.92,230.07s-5.41-2-6.86-1.3-3.22,1.85-2.95,2.94a15.43,15.43,0,0,1,.13,5.37c-.35,1-1,1.72-.81,2.07s1,.08,1.23.51,1.5,3.29,2.24,3.7,4.93-1.07,6.87-5.63S675.12,230.84,673.92,230.07Z"/><path class="cls-10" d="M643.31,320s-6.51,2.27-9.19,3.35c-2.23.89-1.79,2.92.73,3.7s4.6.3,5.18-.5,2-.48,2.53-.22,4.75-.66,5-1.64a14.43,14.43,0,0,0-.36-3.82Z"/><path class="cls-10" d="M670.71,228.44s1.85-2.06,3.94-.85,1.27,3.12,1.71,4a5.16,5.16,0,0,1-.17,5.4c-1.13,2-.45,3.29-2.33,3.5s-2.44-.35-2.44-.35a7.27,7.27,0,0,0,.73-2.94s1.61-.89,1.39-2.28a1.19,1.19,0,0,0-2.37-.14c-.45,1.43.35,2.41-.7,3.1,0,0-.63.18-.63-1.41a15.5,15.5,0,0,1,.29-2.93s-3.8,2-6.72,0-.91-5.18,1.22-5.91A7,7,0,0,1,670.71,228.44Z"/><path class="cls-14" d="M677.72,271.84l-9.46,1.89s-21.51,7.77-24.22,9.8-3.19,36.88-3.19,36.88l7.06.68s3-33.13,4.68-34.1c1.42-.83,24.55-.83,26-.83C680.67,286.16,682.47,276.64,677.72,271.84Z"/><path class="cls-11" d="M638.44,269.4s-1.43.17-1.73.17-4.22-2.38-4.65-2.07-4.46,3.2-4.34,3.77,1.23.25,3.38-1.61c0,0-2.85,2.07-2.31,2.58s3-1.81,3-1.81-2.57,2-2,2.42,2.87-1.9,2.87-1.9-1.78,1.76-1.54,2.06,1.36-.19,2.58-1.37c0,0,.23-.12.87.25s4.61-.29,4.61-.29Z"/><path class="cls-8" d="M637.42,268.23l1.21,4.54s19.59-4.43,21.57-5.89S674,252.57,672.29,249s-4-2.7-5.41-.67S658.69,259,657.73,260,637.42,268.23,637.42,268.23Z"/><path class="cls-11" d="M640.65,271.51s-1.5.17-1.82.17-4.43-2.37-4.88-2.06-4.69,3.19-4.56,3.77,1.3.24,3.55-1.62c0,0-3,2.07-2.43,2.59s3.18-1.81,3.18-1.81-2.69,2-2.06,2.41,3-1.89,3-1.89-1.86,1.76-1.61,2.06,1.42-.2,2.71-1.37c0,0,.23-.13.91.24s4.84-.28,4.84-.28Z"/><path class="cls-8" d="M675,244.64s-4.38,2.22-6.86,2.08c0,0-4,8.44-4.28,10.69s.45,17,.45,17,9.72,2.11,15.44-.78c0,0-1.54-9.61-.91-14.39S679,248.19,675,244.64Z"/><path class="cls-9" d="M673.14,260.32c1-2.24,4.77-5.84,2.85-8.35-1.53-2-2.63-2.16-4.32-.24a57,57,0,0,1-4.83,5.34,29.79,29.79,0,0,1-3,2.22c0,4.64.51,15.1.51,15.1a38.74,38.74,0,0,0,6.93.74C669.23,270.73,671.1,265,673.14,260.32Z"/><path class="cls-8" d="M639.58,270.34l1.27,4.54s20.57-4.42,22.65-5.89S678,254.68,676.21,251.1s-4.2-2.69-5.69-.66-8.59,10.7-9.61,11.71S639.58,270.34,639.58,270.34Z"/><path class="cls-11" d="M541.84,246.81a39.77,39.77,0,0,0,1.81-4.2c.45-1.46,2.33-6.55,3.1-6.09s-.94,4.73-.94,4.73,1.38-5.29,2.37-5.08-1.25,5.21-1.25,5.21,1.8-4.69,2.4-4.3.23,1.43-1.36,4.93c0,0,1.36-3,2-2.38s-1.07,3.42-1.72,4.1a47.13,47.13,0,0,0-4.46,4.74S542,248,541.84,246.81Z"/><path class="cls-24" d="M544.76,243.18s2.27-1.54,3-1.07.07,1.07-2.32,2.06c0,0-.79,1.17-1.33,1.3A1.65,1.65,0,0,1,544.76,243.18Z"/><path class="cls-8" d="M541.62,245.41s-8,13.54-8.47,13.45-12.1-3.63-16.11-6.62c-1.14-.85-1.13,8.41,0,9s18.15,3.59,18.9,3.12,9.4-16.72,9.4-16.72Z"/><path class="cls-9" d="M537.12,261.93c-5.8,3.73-19.4-7-21-7.39-.23,2.53.14,6.3.89,6.68,1.14.57,18.15,3.59,18.9,3.12a17.74,17.74,0,0,0,1.83-2.89A5.47,5.47,0,0,1,537.12,261.93Z"/><path class="cls-12" d="M517.17,246.35c-.51-.1-3-5.29-4-6.3-.51,3.54-2.65,11.95-2.65,11.95,2.6,2.79,7.78,1.08,7.78,1.08A17.8,17.8,0,0,1,517.17,246.35Z"/><path class="cls-11" d="M515.77,233.47s5,1.14,6,2.61,1,5.3,1.5,6.31c.32.61.61,1.11.77,1.47s-.21.5-.65.65a.74.74,0,0,0-.47.49c-.3.93-1.13,3.29-2,3.62-1,.41-6.18.25-7.72-4.23S512.54,232.51,515.77,233.47Z"/><path class="cls-11" d="M536.33,319.85l-3.39-.56a25.63,25.63,0,0,1-.46,4,10.87,10.87,0,0,0,7.7.38A13.12,13.12,0,0,1,537,321.8,3.71,3.71,0,0,1,536.33,319.85Z"/><path class="cls-10" d="M532.78,321.74a10.9,10.9,0,0,0,6.57,1.5s4.87,2.6,5.18,3.25c.44.91-1.69,1-5,.86-2.83-.09-2.62-.3-3.19-.86s-1.28-1.18-1.28-1.18a5.76,5.76,0,0,0-.55,2l-1.27-.18a4.16,4.16,0,0,0-.46-2.38A2.39,2.39,0,0,1,532.78,321.74Z"/><path class="cls-11" d="M522.66,319l-2.55-.7s-1.51,2.5-1.94,3.16a10.85,10.85,0,0,0,7.42,2.08,13.19,13.19,0,0,1-2.66-2.48A3.82,3.82,0,0,1,522.66,319Z"/><path class="cls-10" d="M518.45,320.89a10.9,10.9,0,0,0,6.41,2.1s4.6,3,4.85,3.72c.35,1-1.78.81-5.07.39-2.82-.35-2.59-.54-3.11-1.15s-1.16-1.29-1.16-1.29a5.9,5.9,0,0,0-.73,1.91l-1.25-.3a4.17,4.17,0,0,0-.24-2.41A2.4,2.4,0,0,1,518.45,320.89Z"/><path class="cls-18" d="M510.86,272.27l6.68,4.72s21.67,4.18,24.42,6.24-17.49,38.63-17.49,38.63l-6.3-2.1s15.12-32.37,13.75-33.74-23.66-3.41-25.07-3.83S507.44,276.84,510.86,272.27Z"/><path class="cls-17" d="M510.86,272.27l6.68,4.72s21.67,4.18,24.42,6.24-17.49,38.63-17.49,38.63l-6.3-2.1s15.12-32.37,13.75-33.74-23.66-3.41-25.07-3.83S507.44,276.84,510.86,272.27Z"/><path class="cls-18" d="M508.81,274.41l8.73.74s22.39,5.64,25.13,7.7-4,38.64-4,38.64l-6.83-1.73s3.85-32.4,2.17-33.38c-1.44-.85-24.93-.85-26.4-.85C505.48,285.53,504,279.28,508.81,274.41Z"/><path class="cls-8" d="M511.28,250.24a63.6,63.6,0,0,0,6.92,2.63s4.07,8,4.35,10.29,2.05,14.5,2.05,14.5-12.57,3.61-18.38.74c0,0,1.76-8.69,1.11-13.45S507.25,253.77,511.28,250.24Z"/><path class="cls-9" d="M512.83,263.92c0,4,2.61,6,5.27,8.6a17.45,17.45,0,0,1,4,5.76c1.42-.42,2.51-.62,2.51-.62s-1-6.57-1.57-11c-2.67-1.19-4.09-3.75-5-6.47a10.34,10.34,0,0,0-1.85-3.76c-3,.08-3.14,3.54-3.31,6.78Z"/><polygon class="cls-21" points="493.07 253.09 501.81 288.02 505.43 287.12 497.91 251.88 493.07 253.09"/><rect class="cls-21" x="531.5" y="289.04" width="1.45" height="38.13"/><rect class="cls-21" x="504.71" y="289.04" width="1.45" height="38.13"/><rect class="cls-10" x="500.82" y="285.53" width="36.01" height="4.99"/><path class="cls-10" d="M522.39,237.72c1.63-.63.9-3.16-.22-3.94a12.23,12.23,0,0,0-6.93-2.34c-3,.06-5.65,2.35-7.37,4.56-1.24,1.61-1.16,3.31-2.05,5-.82,1.57-2.59,2.36-3.65,3.77a5.46,5.46,0,0,0-.61,4.63A8.7,8.7,0,0,1,502,253c-.25,1.56-1.51,2.71-1.93,4.22a11.46,11.46,0,0,0-.07,4.29,5.8,5.8,0,0,0,2.57,4.36c3.1,2.06,7.29-.43,7.77-3.89a17.86,17.86,0,0,0-.39-4.45,3.8,3.8,0,0,1,2.07-4c1.35-.87,2-1.44,1.89-3.14a13.89,13.89,0,0,1,0-3.47c.24-1.31.8-1.56-.23-2.52-.72-.68-1.33-1.4-.75-2.42.46-.82,1.21-1.06,1.85-.29.17.2,1,1.91,1.24.95.06-.27-.3-.79-.33-1.09a1.19,1.19,0,0,1,.34-1.08c.51-.54,1.26-.83,1.78-1.37s.75-1.58,1.7-2a2.44,2.44,0,0,1,1.51-.06C521.28,237.14,522.24,237.78,522.39,237.72Z"/><rect class="cls-10" x="547.16" y="270.92" width="18.73" height="2.68"/><polygon class="cls-10" points="570.96 253.54 564.89 272.36 563.94 272.01 570.01 253.19 570.96 253.54"/><rect class="cls-22" x="538.6" y="273.6" width="1.25" height="55.06"/><rect class="cls-22" x="662.37" y="273.6" width="1.25" height="55.06"/><rect class="cls-22" x="538.6" y="273.6" width="125.01" height="1.46"/><path class="cls-11" d="M544.92,270s1.62-.11,2-.18,4.23-3.38,4.77-3.14,5.59,2.47,5.58,3.1-1.33.52-4.08-1c0,0,3.58,1.6,3.08,2.26s-3.73-1.29-3.73-1.29,3.24,1.55,2.66,2.15-3.57-1.42-3.57-1.42,2.32,1.5,2.12,1.87-1.55.07-3.15-.92c0,0-.27-.09-.91.43s-5.19.65-5.19.65Z"/><path class="cls-8" d="M546,269.08l0,4.32s-15.15.92-19.41-.49-13.22-12.86-14-14.78c-.93-2.3,2.58-7.9,6.06-2.8a106.34,106.34,0,0,0,10.12,12.19C529.08,267.73,546,269.08,546,269.08Z"/><path class="cls-10" d="M770.19,248.61s-9.38-.7-12.27-5.52,0-8.11,2.37-9.65,5.92-3.9,6.05-6.09,0-7.58,5.61-9.36a8.23,8.23,0,0,1,5.88.31,6.69,6.69,0,0,1,2.33,1.86,5,5,0,0,1,1,2.41,9.42,9.42,0,0,1,.13,2.38c0,1.27-.32,2.58-.44,3.85-.1,1.11-.17,2.19-.17,3.31a6.65,6.65,0,0,0,.38,2.17c.25.72.64,1.37.91,2.07s.84,2.08,1,2.8a7.54,7.54,0,0,1,0,3.1c-.29,3.11-2.57,5.05-5.46,5.84A21.59,21.59,0,0,1,770.19,248.61Z"/><path class="cls-12" d="M776.91,230.89a5.33,5.33,0,0,1-3.81-2.12,9.37,9.37,0,0,1-1.7,6.85s0,6.23,4,5.62,3.55-5.26,3.55-5.26A5.49,5.49,0,0,1,776.91,230.89Z"/><path class="cls-11" d="M772.68,221s3.83-1.61,5.26-.82,2.08,3,2.55,5.23-.67,6.46-2.78,7.16c-2.49.83-4.68-1.22-5.5-3.82,0,0-2.19-.53-2-3.45S771.1,220.7,772.68,221Z"/><path class="cls-8" d="M778.14,235.17s-1.65,3-2.5,3.51-4.33-4-4.33-4A34.33,34.33,0,0,1,764,238s-1.15,12.16-1.9,15c0,0-1.31,15.38-1.31,17.45h20.65a46.59,46.59,0,0,1,3.54-19.5s-1.21-9.4-.55-11.73A67.53,67.53,0,0,1,778.14,235.17Z"/><path class="cls-9" d="M785,250.89s-.3-2.3-.52-4.91a87.31,87.31,0,0,0-3.37,8.72c-1.34,3.5-5.24,10.15-10,8.64-3.78-1.18-5-5.56-5.57-9.06-.33-1.91-.63-3.85-.83-5.78-.17-1.59-.22-4.2-1.1-5.55-.51.44-.71,2-.78,2.69-.09,1-.11,2-.16,3.05,0,.52,0,1-.08,1.56s-.13.87-.2,1.31-.06.64-.13.94a.5.5,0,0,1,0,.12c0,.12,0,.23-.08.32s-1.31,15.38-1.31,17.45h20.65A46.59,46.59,0,0,1,785,250.89Z"/><polygon class="cls-19" points="771.51 234.42 769.27 235.76 772.7 241.36 775.64 238.94 778.45 241.21 779.83 236.25 777.83 234.8 775.71 238.34 771.51 234.42"/><path class="cls-10" d="M778.4,221.4s-.74,2.6-3,3.23a2.06,2.06,0,0,0-1.46,2.19c0,.46-1,.53-1.05.22s.24-1.86-1.1-2.17-1.44,1.69-.24,2.89c0,0,2.24,2.37,1.19,5a8.67,8.67,0,0,1-7.44,5.65c-4.21.48-6,6.37-6,6.37s-4.23-5,.46-8.57,8-5.66,8-8,1.51-8.78,5.54-9.21S778.4,221.4,778.4,221.4Z"/><path class="cls-10" d="M781.07,225.08s-1.75.25-3.62-2.37a8.8,8.8,0,0,1-1.87-4.7S782.33,219.08,781.07,225.08Z"/><rect class="cls-21" x="760.65" y="282.45" width="1.68" height="44.32"/><rect class="cls-21" x="791.79" y="282.45" width="1.68" height="44.32"/><rect class="cls-21" x="812.28" y="282.45" width="1.68" height="44.32"/><rect class="cls-21" x="843.42" y="282.45" width="1.68" height="44.32"/><rect class="cls-10" x="756.13" y="279.83" width="41.85" height="4.33"/><path class="cls-10" d="M783.41,309.1s-3.8,4.2-3.71,4.74,8.78,12,10,11.85,1.31-2.28,1-3.06-4-12.23-4-12.23Z"/><path class="cls-10" d="M772.65,309.23s-4.15,3.85-4.11,4.39,7.69,12.69,9,12.69,1.5-2.15,1.27-3-2.93-12.54-2.93-12.54Z"/><path class="cls-12" d="M789.52,282.94c-1.47,7-6.45,26.55-6.45,26.55l4.41,2.64S795,293,797.43,282.94Z"/><path class="cls-11" d="M780.67,282.94c-2.18,7.16-8.42,26.73-8.42,26.73l3.94,2.65s10.44-19.39,14.29-29.38Z"/><path class="cls-14" d="M796.2,275.79a43.4,43.4,0,0,0-10.15-4.44h0c-1.43-.37-4-3.71-4.35-6.55-2.06.81-4.62.78-7.14.86-3.49.12-7.57.65-11-.16a9.41,9.41,0,0,1-2.14-.82,13.9,13.9,0,0,0-3.81,9.76c0,3.18.92,4.59,4.39,5.72,1.87.61,11.7-.3,14.44.83,2.43,1,2,3.59,1.58,5.37,11.57,1.66,17.57.54,19.71.05C798.38,284.13,799.9,277.89,796.2,275.79Z"/><path class="cls-10" d="M828.05,264.74s-9.85-.05-13.31-2.36-4.06-11.47,1-15.22,6.06-4.9,6.29-7.37.16-8.07,6.67-8.1,5.83,5.2,6.32,8.53c.33,2.32,3.52,5.74,6.31,7.87C844.87,250.83,848.88,267.05,828.05,264.74Z"/><path class="cls-12" d="M831,241.46a5.67,5.67,0,0,1-1.74.26,5.2,5.2,0,0,1-2.92-.82c-.27,1.85.57,4-1.24,4.53,0,0,.11,8,3.31,8s3.63-8,3.63-8S830.54,245.09,831,241.46Z"/><path class="cls-11" d="M833,239.48c-.33-.72-1.17-.37-1.17-.37.17-1.93.16-5,.16-5l-3.35-.36-3.34.36s0,3,.16,5c0,0-.84-.35-1.17.37-.56,1.2.79,2,.79,2s.94,4.08,3.56,4.32c2.63-.24,3.62-4.34,3.57-4.32S833.56,240.68,833,239.48Z"/><path class="cls-10" d="M832.46,234.08s-1.76,4.53-6.59,4.2a3,3,0,0,1-.13,1.51s-.66-1.89-1.41-1.47a2.54,2.54,0,0,0-1,1.14s-.7-5.37,2.78-6.56A7.15,7.15,0,0,1,832.46,234.08Z"/><path class="cls-10" d="M830.92,233.67a5,5,0,0,0-.07.75c0,.54,0,1.07,0,1.61a3.86,3.86,0,0,1,.87,2.45,2.87,2.87,0,0,0,.16,1.31s.67-1.89,1.41-1.47a2.54,2.54,0,0,1,1,1.14S834.09,233.57,830.92,233.67Z"/><path class="cls-21" d="M838,258.1c-1-2.81-.47-10.36-.47-10.36-1.19-.38-5.87-2.57-5.87-2.57l-3,7.33-3.2-7.28s-3.77,1.82-5,2.19c0,0-.24,7.88-1.21,10.69,0,0,3,4.84,0,15.67H838C835,262.94,838,258.1,838,258.1Z"/><path class="cls-23" d="M838,258.1a32.24,32.24,0,0,1-.41-4.36c-.44,1.2-1,3.81-1.42,5-1.54,4-3.2,5.64-7.67,5.71-3.57.06-6.91-5.71-7.28-6.78-.44-1.23-1-2.41-1.42-3.61a16.37,16.37,0,0,1-.54,4.05s3,4.84,0,15.67H838C835,262.94,838,258.1,838,258.1Z"/><path class="cls-11" d="M837.31,266.08s-1.58.81-2.11.66-.78-.49-1.88-.15a7.27,7.27,0,0,0-2.05.9c-.56.33-1.63.86-1.29,1.5s1.49-.21,1.6-.26l.48-.23s-1.31.62-1.07,1,.88.37,1.3.13a8.22,8.22,0,0,0,.79-.5s-.88.61-.72.81a1.16,1.16,0,0,0,1.26,0,2.07,2.07,0,0,0,.69-.52s-.78.55-.08.79,1.34-.49,1.73-.77.93-.89,1.12-1,1.88-.71,1.88-.71Z"/><path class="cls-10" d="M830,269.18l-4.61-7.55s-1.38-.73-1.31.91l5.46,7S831.15,271.35,830,269.18Z"/><path class="cls-11" d="M819.72,266.1a8.52,8.52,0,0,0,1.88.83c.24-.08,3.66-2.07,4.4-1.71a4.75,4.75,0,0,1,1.53,1.65c.35.47,1.5,1.89,1,2.35s-1.35-1.12-1.65-1.44-1.18-1.26-1.68-1.16a4.58,4.58,0,0,1,1.41,1.07c.43.6,1.47,1.51,1.08,2.14s-1.68-1.22-1.8-1.34a4.55,4.55,0,0,0-1.37-.87s1.08.77,1.2.91,1.38,1.12,1.17,1.46-.64.48-1.6-.61a4.71,4.71,0,0,0-1.15-.82,7.5,7.5,0,0,1,1.08.75c.21.22.68.73.31.84s-.88-.17-1.42-.51a2.34,2.34,0,0,0-1.81-.37c-.63.16-3.63-.89-3.63-.89Z"/><path class="cls-11" d="M827.71,265.38s1.28.42,1.52,1-.17.86-.47.74Z"/><path class="cls-21" d="M820.47,247.41c-1.07.29-3.69,1.27-6.13,7.88-2.21,6-3.11,10.85-2.9,12.4.35,2.5,10.06,2.42,10.06,2.42l.65-3.86s-4.36-1.42-4.26-2c.14-.72,1.37-3.38,1.88-5C819.86,259,821.22,247.2,820.47,247.41Z"/><path class="cls-21" d="M837.31,247.7c.77.13,3.61,1.43,6.12,7.59,2.42,5.9,3.12,10.85,2.9,12.4-.34,2.5-10.05,2.42-10.05,2.42l-.65-3.86s4.36-1.42,4.25-2c-.14-.72-1.37-3.38-1.88-5C837.91,259,836.54,247.58,837.31,247.7Z"/><path class="cls-11" d="M806.94,264.29l-1.24,2.21a19.76,19.76,0,0,1,2.15,1.45,4.67,4.67,0,0,0,2.92,2.29c1.94.37,2.24.76,2.73.26s-.79-1.19-1.57-1.37-1.41-.31-1.3-.49.81-.17,2.18,0,3.19.84,3.6.56-1-1.47-2.7-1.65a15.43,15.43,0,0,1-1.79-.27,19.46,19.46,0,0,1,1.94.18c.39.1,2.7.76,3.24.33s-1.52-1.22-3-1.37a6.94,6.94,0,0,0-1.9,0,19.72,19.72,0,0,1,2.13-.06c.52.06,2,.5,2.18.11s-1.09-.92-2.21-1a12.25,12.25,0,0,0-2.07.13,11.84,11.84,0,0,1,2-.27c.55,0,1.39.15,1.44-.1s-.32-.74-2.19-.71a14.51,14.51,0,0,0-2.55.35C810,265.1,807.22,264.3,806.94,264.29Z"/><rect class="cls-22" x="743.45" y="269.84" width="1.3" height="57.26"/><rect class="cls-22" x="856.03" y="269.84" width="1.3" height="57.26"/><rect class="cls-22" x="741.25" y="269.84" width="118.28" height="1.52"/><path class="cls-28" d="M840.78,283.17c0-.18,0-.36,0-.51a15.72,15.72,0,0,0-2.86-9.09H819.16a16.89,16.89,0,0,0-2.56,9.09c0,.15,0,.33,0,.51Z"/><path class="cls-10" d="M823.24,310.07s-4.75,5.64-5.3,6.84.8,2.71,2.65,2.1,7.3-6.84,7-7.61-1.48-1.61-1.48-1.61Z"/><rect class="cls-10" x="807.84" y="279.83" width="41.34" height="4.33"/><path class="cls-11" d="M828.09,282.11c-.18-2.19.22-6.19-3.4-6.19-5.47,0-4.35,7.87-4.26,8.75.86,8.72,2.81,25.4,2.81,25.4l2.92-.37S828.17,283.11,828.09,282.11Z"/><path class="cls-10" d="M834.15,310.07s4.74,5.64,5.29,6.84-.8,2.71-2.65,2.1-7.3-6.84-7-7.61,1.48-1.61,1.48-1.61Z"/><path class="cls-11" d="M829.29,282.11c.18-2.19-.21-6.19,3.4-6.19,5.48,0,4.36,7.87,4.27,8.75-.86,8.72-2.81,25.4-2.81,25.4l-2.93-.37S829.21,283.11,829.29,282.11Z"/><path class="cls-8" d="M808.05,263.46,806.83,268s-16-2.86-17.49-5.08-5.28-11.74-5.28-11.74-2.17-7.25.35-12c0,0,2.38.9,3.73,4.59.88,2.37,5.13,12.56,6,13.63S808.05,263.46,808.05,263.46Z"/><path class="cls-11" d="M764.79,266.89s1.4.22,1.7.22,4.26-2.06,4.68-1.75,4.29,3.18,4.15,3.72-1.23.18-3.28-1.66c0,0,2.74,2.06,2.19,2.53s-2.93-1.83-2.93-1.83,2.46,1.95,1.85,2.36-2.77-1.9-2.77-1.9,1.7,1.72,1.45,2-1.34-.24-2.5-1.39c0,0-.22-.13-.87.19s-4.55-.45-4.55-.45Z"/><path class="cls-8" d="M766.1,267l-1.27,2.86s-12.06-5.22-12.49-10.08,7-21.3,12.16-21.19c0,0-1,11-2.32,14,0,0-2.91,4.61-2.87,5.73S766.1,267,766.1,267Z"/><rect class="cls-8" x="404.55" y="120.09" width="60.12" height="40.67" rx="2.73"/><rect class="cls-21" x="407.28" y="123.33" width="54.65" height="34.19"/><polygon class="cls-18" points="426.46 133.33 426.46 150.07 442.76 141.7 426.46 133.33"/><path class="cls-12" d="M415,233.9h-5.44s-.78,7.41-2.2,8.29c0,0-1.75,8.75,4.92,8.75,8.07,0,4.92-8.75,4.92-8.75C415.76,241.31,415,233.9,415,233.9Z"/><path class="cls-11" d="M419.33,235.35c-.75-.86-1.66.45-1.66.45s1.25-4.89,0-7-5.27-1-5.27-1-4-1.13-5.27,1,0,7,0,7-.91-1.31-1.66-.45,1.24,3.05,1.69,3.32c0,0,2.9,5.42,5.24,5.42s5.24-5.42,5.24-5.42C418.09,238.4,420.08,236.22,419.33,235.35Z"/><path class="cls-10" d="M411.39,229.68s-3.06.54-3.39,2.18a6.29,6.29,0,0,0,.16,2.44,15.81,15.81,0,0,1,.26,2.7.47.47,0,0,1-.4-.07,5.62,5.62,0,0,1-1-1.24c-.58-.85-1.41-.71-1.65-.17,0,0-.68-8,2.68-8.32S411.39,229.68,411.39,229.68Z"/><path class="cls-10" d="M413.37,229.68s3.05.54,3.39,2.18a6.29,6.29,0,0,1-.16,2.44,15.81,15.81,0,0,0-.26,2.7.45.45,0,0,0,.39-.07,5.12,5.12,0,0,0,1-1.24c.59-.85,1.42-.71,1.66-.17,0,0,.68-8-2.69-8.32S413.37,229.68,413.37,229.68Z"/><path class="cls-10" d="M417.86,227.67a2.46,2.46,0,0,0-1.44-2.14,8.14,8.14,0,0,0-6.87,0c-2.37,1.19-3.09,1.45-3.79,1.06s-.25-.79-.25-.79-1.56,0-1.48,2.39,3,5.41,6.91,5.41C416.86,233.6,418.77,229.47,417.86,227.67Z"/><path class="cls-21" d="M417.18,242.19c-.28,7.44-4.92,6.67-4.92,6.67s-4.63.77-4.92-6.67c0,0-7.4,2-11,4.46A71.4,71.4,0,0,1,398,260.36l4.23,16.39,10.06.5,10.06-.5,4.23-16.39a71.4,71.4,0,0,1,1.64-13.71C424.58,244.23,417.18,242.19,417.18,242.19Z"/><path class="cls-23" d="M425.83,251c-4.6,2.45-6.84,8.09-11.31,10.86s-7.89-2.92-10.14-5.92A17.39,17.39,0,0,0,397,250a70.82,70.82,0,0,1,1,10.36l4.23,16.39,10.06.5,10.06-.5,4.23-16.39a71.59,71.59,0,0,1,1-10.21C426.93,250.41,426.36,250.67,425.83,251Z"/><path class="cls-8" d="M430.92,283.38c0-5.75-7.13-9.53-7.13-9.53h-24s-7.13,3.78-7.13,9.53a28.54,28.54,0,0,0,.58,4.44h8c-.33.59-.62,1.13-.85,1.59-.07.14-.15.27-.23.4h5.79c.44,0,1.27.18,1.15-.46-.18-.92-.75-1.44-.19-2.4a3.33,3.33,0,0,1,2.47-1.38h.56q1.88,0,3.75,0a6.5,6.5,0,0,1,1.4.23c.41.07.94.07,1.17.48a6.38,6.38,0,0,1,.41,1.8,9.84,9.84,0,0,1-.13,1.73h8.12a21,21,0,0,1-1.39-2h7.08A28.54,28.54,0,0,0,430.92,283.38Z"/><path class="cls-9" d="M430.92,283.38c0-5.75-7.13-9.53-7.13-9.53h-24s-7.13,3.78-7.13,9.53a28.54,28.54,0,0,0,.58,4.44h8c-.33.59-.62,1.13-.85,1.59-.07.14-.15.27-.23.4h6.93c.18,0-.28-1-.32-1.09a1.68,1.68,0,0,1-.12-1.19,2.33,2.33,0,0,1,.79-1.07,5.94,5.94,0,0,1,4.12-.95c1.37,0,2.89-.15,4.09.65a2.64,2.64,0,0,1,.62.53c.83,1,.39,2,.27,3.12h8.12a21,21,0,0,1-1.39-2h7.08A28.54,28.54,0,0,0,430.92,283.38Z"/><path class="cls-21" d="M396.33,246.65s-9.15,19.78-8.48,22.41c.16.66,11.3,7.38,16.54,6.42l2.13-.39S398.74,246.51,396.33,246.65Z"/><path class="cls-21" d="M428.17,246.65s9.15,19.78,8.49,22.41c-.17.66-11.3,7.38-16.54,6.42l-2.13-.39S425.76,246.51,428.17,246.65Z"/><path class="cls-23" d="M399.9,253.57a13.79,13.79,0,0,1-.35,2.89c-.81,3.57-2.08,7.3-.75,10.93a59.07,59.07,0,0,0,4.13,8.17,6.89,6.89,0,0,0,1.46-.08l2.13-.39S403,262,399.9,253.57Z"/><path class="cls-23" d="M423.17,275.38a13,13,0,0,0,1-5.27c-.12-3.65-.14-7.31-.08-11,0-1.58.06-3.11.15-4.61-3,8.42-6.26,20.55-6.26,20.55l2.13.39A8.86,8.86,0,0,0,423.17,275.38Z"/><path class="cls-10" d="M403.13,317.61s-5.81,6.91-6.49,8.38,1,3.32,3.25,2.56,3.58-2.3,3.61-3.28,1.25-1.5,1.78-1.58,3.54-3.5,3.24-4.45-1.82-2-1.82-2Z"/><path class="cls-10" d="M420.48,317.61s5.81,6.91,6.49,8.38-1,3.32-3.24,2.56-3.59-2.3-3.62-3.28-1.25-1.5-1.78-1.58-3.54-3.5-3.24-4.45,1.82-2,1.82-2Z"/><rect class="cls-21" x="389.2" y="288.8" width="1.89" height="39.93"/><rect class="cls-21" x="432.93" y="288.8" width="1.89" height="39.93"/><rect class="cls-10" x="385.49" y="285.58" width="51.8" height="5.12"/><path class="cls-8" d="M405.16,283.08c-.69-1.64-.83-5.12-5.49-5.12-9,0-6.86,7.18-6.73,8.26,1.36,10.7,7.87,32,7.87,32h9s-3.27-26.15-3.77-30.19A28.7,28.7,0,0,0,405.16,283.08Z"/><path class="cls-8" d="M418.47,283.08c.69-1.64.83-5.12,5.49-5.12,9,0,6.86,7.18,6.73,8.26-1.36,10.7-7.87,32-7.87,32h-9s3.27-26.15,3.77-30.19A28.7,28.7,0,0,1,418.47,283.08Z"/><rect class="cls-10" x="399.08" y="275.31" width="26.37" height="1.56"/><path class="cls-10" d="M429.33,257H395.2a1.58,1.58,0,0,0-1.53,2.05c.32,2.06,4.62,16.44,5.49,16.44h26.21c.76,0,5.17-14.38,5.48-16.44A1.57,1.57,0,0,0,429.33,257Z"/><path class="cls-19" d="M413.67,267a1.41,1.41,0,1,1-1.41-1.41A1.41,1.41,0,0,1,413.67,267Z"/><polygon class="cls-17" points="157.01 285.18 157.01 287.13 179.13 287.13 179.13 292.22 157.01 292.22 157.01 294.17 204.19 294.17 204.19 285.18 157.01 285.18"/><path class="cls-8" d="M209.89,295.52h1.43v-1.35h-49.6v6.22h49.6V299h-1.43c-.47-.05-.84-.81-.84-1.76S209.42,295.57,209.89,295.52Z"/><rect class="cls-18" x="182.8" y="285.18" width="21.38" height="9"/><rect class="cls-9" x="161.72" y="294.17" width="27.38" height="6.22"/><path class="cls-29" d="M157,287.13h0c.68.07,1.22,1.18,1.22,2.54s-.54,2.48-1.22,2.54h23.77v-5.09Z"/><polygon class="cls-18" points="209.52 266.39 209.52 264.44 187.4 264.44 187.4 259.34 209.52 259.34 209.52 257.39 162.34 257.39 162.34 266.39 209.52 266.39"/><rect class="cls-17" x="162.34" y="257.39" width="21.38" height="9"/><path class="cls-29" d="M209.52,264.44h0c-.68-.06-1.23-1.17-1.23-2.54s.55-2.47,1.23-2.54H185.75v5.1Z"/><polygon class="cls-18" points="215.09 325.47 215.09 324.11 182.74 324.11 182.74 320.54 215.09 320.54 215.09 319.18 146.1 319.18 146.1 325.47 215.09 325.47"/><rect class="cls-17" x="146.11" y="319.18" width="31.27" height="6.3"/><path class="cls-29" d="M215.09,324.11h0a1.78,1.78,0,1,1,0-3.55H180.33v3.57Z"/><polygon class="cls-30" points="149.8 300.39 149.8 302.34 173.51 302.34 173.51 307.44 149.8 307.44 149.8 309.39 200.36 309.39 200.36 300.39 149.8 300.39"/><rect class="cls-31" x="177.44" y="300.39" width="29.1" height="9"/><path class="cls-29" d="M149.8,302.34h0c.73.06,1.31,1.17,1.31,2.54s-.58,2.47-1.31,2.54h53.44v-5.09Z"/><path class="cls-29" d="M177.52,302.34H149.8c.73.06,1.31,1.17,1.31,2.54s-.58,2.47-1.31,2.54h27.72Z"/><polygon class="cls-30" points="152.41 276.18 152.41 278.13 172.06 278.13 172.06 283.22 152.41 283.22 152.41 285.18 194.31 285.18 194.31 276.18 152.41 276.18"/><rect class="cls-31" x="175.32" y="276.18" width="24.11" height="9"/><path class="cls-29" d="M152.41,278.13h0c.61.06,1.09,1.17,1.09,2.54s-.48,2.47-1.09,2.54H196.7v-5.09Z"/><path class="cls-29" d="M175.38,278.13h-23c.61.06,1.09,1.17,1.09,2.54s-.48,2.47-1.09,2.54h23Z"/><polygon class="cls-21" points="212.18 319.18 212.18 317.05 185.41 317.05 185.41 311.51 212.18 311.51 212.18 309.39 158.45 309.39 158.45 319.18 212.18 319.18"/><rect class="cls-23" x="152.24" y="309.39" width="29.23" height="9.79"/><path class="cls-29" d="M212.18,317.05h0c-.74-.08-1.32-1.28-1.32-2.77s.58-2.69,1.32-2.76H155.55v5.54Z"/><path class="cls-29" d="M181.39,317.05h30.79c-.74-.08-1.32-1.28-1.32-2.77s.58-2.69,1.32-2.76H181.39Z"/><polygon class="cls-21" points="203.15 276.18 203.15 274.06 182.33 274.06 182.33 268.51 203.15 268.51 203.15 266.39 161.36 266.39 161.36 276.18 203.15 276.18"/><rect class="cls-23" x="156.52" y="266.39" width="22.73" height="9.79"/><path class="cls-29" d="M203.15,274.06h0c-.57-.07-1-1.28-1-2.77s.46-2.69,1-2.76H159.1v5.55Z"/><path class="cls-29" d="M179.2,274.06h24c-.57-.07-1-1.28-1-2.77s.46-2.69,1-2.76h-24Z"/><rect class="cls-29" x="194.59" y="299.04" width="15.3"/><path class="cls-29" d="M209.05,297.28c0-.94.37-1.71.84-1.76H190.83V299h19.06C209.42,299,209.05,298.23,209.05,297.28Z"/><path class="cls-8" d="M204.58,250h1v-2.05H169.12v9.47h36.51v-2h-1c-.35-.07-.63-1.24-.63-2.68S204.23,250.05,204.58,250Z"/><rect class="cls-9" x="169.12" y="247.92" width="20.15" height="9.48"/><path class="cls-29" d="M204,252.66c0-1.44.28-2.61.63-2.68h-14v5.37h14C204.23,255.27,204,254.1,204,252.66Z"/><path class="cls-6" d="M587.08,153.75H560.79l-14.1,11.51L553,153.75h-6.46a2,2,0,0,1-2-2v-26.1a2,2,0,0,1,2-2h40.51a2,2,0,0,1,2,2v26.1A2,2,0,0,1,587.08,153.75Z"/><path class="cls-6" d="M572.9,134.78c0,3.48-4.38,4.51-4.38,5.86v.54h-4.38V139.9c0-1.87,3.33-2.94,3.33-5a1.68,1.68,0,0,0-1.69-1.79c-1.38,0-1.66,1.08-1.66,2.15,0,.23,0,.46,0,.69h-4.71c0-.33-.07-.64-.07-1,0-3.33,3-5.4,7-5.4S572.9,131.61,572.9,134.78Zm-4,12.7h-5.06v-4.74h5.06Z"/><path class="cls-6" d="M107.23,160.45h-4.8l4.14,8.89-9-8.89H81.75a1.27,1.27,0,0,1-1.27-1.28V142.76a1.27,1.27,0,0,1,1.27-1.27h25.48a1.27,1.27,0,0,1,1.27,1.27v16.41A1.27,1.27,0,0,1,107.23,160.45Z"/><path class="cls-6" d="M98.31,148.52c0,2.19-2.75,2.83-2.75,3.68v.34H92.8v-.8c0-1.18,2.1-1.86,2.1-3.16a1.07,1.07,0,0,0-1.07-1.13c-.87,0-1,.68-1,1.36,0,.14,0,.29,0,.43h-3c0-.21,0-.4,0-.61,0-2.09,1.87-3.4,4.4-3.4S98.31,146.52,98.31,148.52Zm-2.51,8H92.61v-3H95.8Z"/><path class="cls-6" d="M356.71,156.27H336.64l-10.76,8.79,4.84-8.79h-4.94a1.54,1.54,0,0,1-1.54-1.54V134.8a1.54,1.54,0,0,1,1.54-1.54h30.93a1.54,1.54,0,0,1,1.55,1.54v19.93A1.54,1.54,0,0,1,356.71,156.27Z"/><path class="cls-6" d="M337.05,150.09h-3.76v-3.52h3.76Z"/><path class="cls-6" d="M343,150.09h-3.76v-3.52H343Z"/><path class="cls-6" d="M348.85,150.09H345.1v-3.52h3.75Z"/><path class="cls-6" d="M964.37,159.37H948l-8.76,7.16,3.94-7.16h-4a1.25,1.25,0,0,1-1.25-1.25V141.9a1.25,1.25,0,0,1,1.25-1.26h25.18a1.25,1.25,0,0,1,1.26,1.26v16.22A1.25,1.25,0,0,1,964.37,159.37Z"/><path class="cls-6" d="M950.41,155.9v-2.48h2.52v2.48Zm.82-3.26-.76-8.92h2.68l-1,8.92Z"/><path class="cls-6" d="M310.9,69.74V84.83h8.23v4.32H305.84V69.74Z"/><path class="cls-6" d="M336.73,69.74v4H326.49v3.63h9.24v4l-9.24,0v3.66H337v4H321.42V69.74Z"/><path class="cls-6" d="M353,85.71h-8.38l-1.36,3.44h-5.2l8.33-19.41h5.2l8.14,19.41h-5.4Zm-1.49-3.87-2.66-6.92-2.71,6.92Z"/><path class="cls-6" d="M373.15,89.15l-2.82-5.37h-3.76v5.37H361.5V69.74h8.72c5.15,0,8.08,2.49,8.08,6.81,0,2.94-1.21,5.1-3.46,6.26l4,6.34Zm-6.58-9.41h3.68c2.05,0,3.24-1.06,3.24-3s-1.19-2.94-3.24-2.94h-3.68Z"/><path class="cls-6" d="M386,69.74l8.8,11.68V69.74h4.7V89.15h-4.42l-8.81-11.63V89.15h-4.73V69.74Z"/><path class="cls-6" d="M408.36,69.74V89.15H403.3V69.74Z"/><path class="cls-6" d="M416.58,69.74l8.8,11.68V69.74h4.71V89.15h-4.43l-8.8-11.63V89.15h-4.73V69.74Z"/><path class="cls-6" d="M446.73,79.24h4.37v7.64A15.55,15.55,0,0,1,443,89.37c-5.93,0-10.38-4.26-10.38-9.91s4.56-9.86,10.71-9.86a12.49,12.49,0,0,1,8,2.88L448.44,76a7.84,7.84,0,0,0-5.12-2.13,5.58,5.58,0,0,0,.06,11.15,8,8,0,0,0,3.35-.91Z"/><path class="cls-7" d="M752,81.57h4.37v7.64a15.52,15.52,0,0,1-8.08,2.49c-5.92,0-10.38-4.26-10.38-9.91s4.57-9.85,10.71-9.85a12.42,12.42,0,0,1,8,2.88l-2.88,3.54a7.82,7.82,0,0,0-5.12-2.13,5.58,5.58,0,0,0,.06,11.15,7.93,7.93,0,0,0,3.35-.91Z"/><path class="cls-7" d="M779.47,81.76c0,5.68-4.49,9.94-10.49,9.94s-10.49-4.26-10.49-9.94S763,71.94,769,71.94,779.47,76.15,779.47,81.76Zm-15.78,0A5.47,5.47,0,0,0,769,87.38a5.56,5.56,0,1,0-5.34-5.59Z"/><path class="cls-7" d="M794.39,88.05H786l-1.36,3.43h-5.2l8.33-19.4H793l8.14,19.4h-5.4Zm-1.5-3.88-2.66-6.92-2.71,6.92Z"/><path class="cls-7" d="M807.92,72.08V87.16h8.22v4.32H802.85V72.08Z"/><path class="cls-7" d="M399.64,368.61V374h-7.53v19.72h-6.56V374h-7.46v-5.42Z"/><path class="cls-7" d="M422.13,368.61v5.24H408.86v4.69h12v5.2l-12,0v4.73h13.63v5.24H402.3V368.61Z"/><path class="cls-7" d="M443.26,389.3H432.39l-1.76,4.45h-6.74l10.8-25.14h6.74L452,393.75h-7Zm-1.94-5-3.44-9-3.52,9Z"/><path class="cls-7" d="M465.49,374a7.11,7.11,0,0,0,0,14.2,9.32,9.32,0,0,0,6.24-2.94l3.84,4.12A15,15,0,0,1,465.13,394c-7.56,0-13.19-5.53-13.19-12.91s5.77-12.7,13.45-12.7a14.38,14.38,0,0,1,10.14,4.31l-3.8,4.55A8.55,8.55,0,0,0,465.49,374Z"/><path class="cls-7" d="M484.93,368.61v10.26h10.15V368.61h6.56v25.14h-6.56V384.1H484.93v9.65h-6.56V368.61Z"/><path class="cls-7" d="M513.09,368.61v25.14h-6.56V368.61Z"/><path class="cls-7" d="M523.74,368.61l11.4,15.13V368.61h6.1v25.14H535.5l-11.4-15.06v15.06H518V368.61Z"/><path class="cls-7" d="M562.79,380.91h5.67v9.9A20.19,20.19,0,0,1,558,394c-7.67,0-13.45-5.53-13.45-12.84s5.92-12.77,13.88-12.77a16.21,16.21,0,0,1,10.33,3.73L565,376.75a10.21,10.21,0,0,0-6.64-2.76,7.23,7.23,0,0,0,.08,14.45,10.28,10.28,0,0,0,4.33-1.18Z"/><path class="cls-7" d="M167.17,370.11c-.94,0-1.56.35-1.56,1,0,2.49,7.91,1.08,7.91,6.48,0,3.07-2.7,4.64-6.05,4.64a11.33,11.33,0,0,1-6.93-2.41l1.53-3.06a9.57,9.57,0,0,0,5.45,2.27c1.15,0,1.88-.43,1.88-1.22,0-2.56-7.91-1-7.91-6.33,0-2.81,2.38-4.59,6-4.59a11.51,11.51,0,0,1,6,1.69L172,371.72A11.7,11.7,0,0,0,167.17,370.11Z"/><path class="cls-7" d="M182.66,370.31a4.25,4.25,0,0,0,0,8.49,5.54,5.54,0,0,0,3.73-1.76l2.3,2.47a9,9,0,0,1-6.24,2.79,7.61,7.61,0,0,1-7.9-7.72c0-4.34,3.45-7.6,8-7.6a8.64,8.64,0,0,1,6.07,2.58l-2.28,2.72A5.1,5.1,0,0,0,182.66,370.31Z"/><path class="cls-7" d="M194.28,367.09v6.13h6.08v-6.13h3.92v15h-3.92v-5.77h-6.08v5.77h-3.92v-15Z"/><path class="cls-7" d="M222.49,374.6c0,4.4-3.47,7.7-8.13,7.7s-8.13-3.3-8.13-7.7,3.48-7.62,8.13-7.62S222.49,370.24,222.49,374.6Zm-12.23,0a4.25,4.25,0,0,0,4.15,4.33,4.16,4.16,0,0,0,4.05-4.33,4.12,4.12,0,0,0-4.05-4.29A4.19,4.19,0,0,0,210.26,374.62Z"/><path class="cls-7" d="M239.48,374.6c0,4.4-3.47,7.7-8.13,7.7s-8.13-3.3-8.13-7.7,3.47-7.62,8.13-7.62S239.48,370.24,239.48,374.6Zm-12.23,0a4.24,4.24,0,0,0,4.14,4.33,4.31,4.31,0,1,0-4.14-4.33Z"/><path class="cls-7" d="M245.36,367.09v11.69h6.37v3.35h-10.3v-15Z"/><path class="cls-7" d="M706.43,393.75l-5-7.5L698.9,389v4.73h-5.06v-19.4h5.06v8.13l7.28-8.13h5.87l-7.2,8,7.64,11.38Z"/><path class="cls-7" d="M719,374.35l8.8,11.68V374.35h4.7v19.4H728.1l-8.8-11.63v11.63h-4.73v-19.4Z"/><path class="cls-7" d="M756.06,384c0,5.68-4.48,9.94-10.49,9.94s-10.49-4.26-10.49-9.94,4.48-9.82,10.49-9.82S756.06,378.41,756.06,384Zm-15.78,0a5.48,5.48,0,0,0,5.35,5.59,5.56,5.56,0,1,0-5.35-5.59Z"/><path class="cls-7" d="M761.82,374.35l3.68,14,3.65-14h5l3.68,14,3.65-14h5.21l-6.4,19.4H775l-3.49-13.09-3.6,13.09h-5.2l-6.37-19.4Z"/><path class="cls-7" d="M793.4,374.35v15.08h8.22v4.32H788.33v-19.4Z"/><path class="cls-7" d="M819.22,374.35v4H809V382h9.25v4l-9.25,0v3.66H819.5v4H803.92v-19.4Z"/><path class="cls-7" d="M841.28,384c0,5.79-4.23,9.72-10.51,9.72H822.6v-19.4H831C837.1,374.35,841.28,378.28,841.28,384Zm-5.17.06c0-3.35-2.19-5.62-5.26-5.62h-3.18v11.18h3.43C834,389.65,836.11,387.41,836.11,384.09Z"/><path class="cls-7" d="M856.31,383.84h4.38v7.64A15.55,15.55,0,0,1,852.6,394c-5.92,0-10.38-4.26-10.38-9.91s4.57-9.85,10.72-9.85a12.44,12.44,0,0,1,8,2.88L858,380.63a7.84,7.84,0,0,0-5.12-2.13,5.58,5.58,0,0,0,.05,11.15,7.93,7.93,0,0,0,3.35-.91Z"/><path class="cls-7" d="M879.34,374.35v4H869.1V382h9.25v4l-9.25,0v3.66h10.52v4H864v-19.4Z"/><polygon class="cls-6" points="515.7 133.76 511.26 133.76 511.26 129.32 508.76 129.32 508.76 133.76 504.33 133.76 504.33 136.26 508.76 136.26 508.76 140.69 511.26 140.69 511.26 136.26 515.7 136.26 515.7 133.76"/><polygon class="cls-6" points="86.17 210.59 81.73 210.59 81.73 206.15 79.23 206.15 79.23 210.59 74.79 210.59 74.79 213.09 79.23 213.09 79.23 217.52 81.73 217.52 81.73 213.09 86.17 213.09 86.17 210.59"/><polygon class="cls-6" points="104 263.05 99.56 263.05 99.56 258.61 97.06 258.61 97.06 263.05 92.62 263.05 92.62 265.54 97.06 265.54 97.06 269.98 99.56 269.98 99.56 265.54 104 265.54 104 263.05"/><polygon class="cls-6" points="307.27 150.02 302.83 150.02 302.83 145.58 300.34 145.58 300.34 150.02 295.9 150.02 295.9 152.51 300.34 152.51 300.34 156.95 302.83 156.95 302.83 152.51 307.27 152.51 307.27 150.02"/><polygon class="cls-32" points="164.13 122.25 159.7 122.25 159.7 117.81 157.2 117.81 157.2 122.25 152.76 122.25 152.76 124.75 157.2 124.75 157.2 129.19 159.7 129.19 159.7 124.75 164.13 124.75 164.13 122.25"/><polygon class="cls-6" points="707.57 116.57 703.13 116.57 703.13 112.13 700.63 112.13 700.63 116.57 696.19 116.57 696.19 119.06 700.63 119.06 700.63 123.5 703.13 123.5 703.13 119.06 707.57 119.06 707.57 116.57"/><polygon class="cls-6" points="912.75 146.12 908.31 146.12 908.31 141.68 905.81 141.68 905.81 146.12 901.37 146.12 901.37 148.62 905.81 148.62 905.81 153.06 908.31 153.06 908.31 148.62 912.75 148.62 912.75 146.12"/><polygon class="cls-32" points="961.79 218.7 957.35 218.7 957.35 214.26 954.85 214.26 954.85 218.7 950.41 218.7 950.41 221.2 954.85 221.2 954.85 225.64 957.35 225.64 957.35 221.2 961.79 221.2 961.79 218.7"/><polygon class="cls-32" points="949.31 286.95 944.87 286.95 944.87 282.51 942.37 282.51 942.37 286.95 937.93 286.95 937.93 289.45 942.37 289.45 942.37 293.88 944.87 293.88 944.87 289.45 949.31 289.45 949.31 286.95"/><circle class="cls-7" cx="540.28" cy="81.22" r="15.89"/><path class="cls-6" d="M134.17,90.16c-5.51,0-10.95-.12-16.41.12a80.1,80.1,0,0,1-11.18-.37,13.05,13.05,0,0,1-3.73-.84c-1.1-.44-2.55-.93-.87-1.52,3.69-1.3,8,1.32,11.54-.28-.38-.63-1.68-1.57-1.07-2.44.4-.56,2.57-.83,3.23-.89a17.81,17.81,0,0,1,7.81.72c2.72,1.1,5.46.9,8.44.9,1.34,0,6.94-.6,7.56,1.11.37,1-1.06.55.18,1.47.88.65,2.51.53,3.54.52.67,0,2.53-.15,3,.46.7.87-.36,1.37-1.12,1.54C143.23,91.07,135.82,90.16,134.17,90.16Z"/><path class="cls-7" d="M940,71.67c-5.51,0-11-.12-16.41.12a77.15,77.15,0,0,1-11.18-.37,13.05,13.05,0,0,1-3.73-.84c-1.1-.43-2.55-.93-.87-1.52,3.69-1.29,8,1.33,11.54-.27-.38-.63-1.68-1.58-1.07-2.44.4-.56,2.57-.83,3.23-.89a17.81,17.81,0,0,1,7.81.71c2.72,1.11,5.46.9,8.44.9,1.34,0,6.93-.59,7.56,1.12.37,1-1.06.55.18,1.46.88.66,2.5.54,3.54.53.67,0,2.53-.15,3,.46.7.87-.36,1.37-1.12,1.54C949,72.59,941.63,71.67,940,71.67Z"/><path class="cls-7" d="M676.16,68.2c-5.51,0-11-.12-16.41.12A78.59,78.59,0,0,1,648.57,68a13.05,13.05,0,0,1-3.73-.84c-1.1-.44-2.55-.93-.87-1.52,3.69-1.3,8,1.32,11.54-.28-.38-.63-1.68-1.57-1.07-2.43.4-.57,2.57-.83,3.23-.9a17.81,17.81,0,0,1,7.81.72c2.72,1.1,5.46.9,8.44.9,1.33,0,6.93-.6,7.56,1.11.37,1-1.06.56.18,1.47.88.65,2.5.53,3.54.53.67,0,2.53-.15,3,.46.7.87-.36,1.37-1.12,1.53C685.22,69.11,677.8,68.2,676.16,68.2Z"/><path class="cls-6" d="M156.6,71.38a60.67,60.67,0,0,0,8.21.16,14.23,14.23,0,0,1,3.51.14,29.75,29.75,0,0,0,7.38-.22c1.5-.13,3.33.07,4.72-.63,2.77-1.4-1.16-2-2.39-1.93a10.15,10.15,0,0,1-6-.89A7.77,7.77,0,0,0,169,67.4c-.89-.09-2.37-.52-3.2-.1-.37.17-.53.59-1,.78a6.73,6.73,0,0,1-2.19.28,23.31,23.31,0,0,1-3.74-.46c-.87-.07-7.26-1-7.59,0-.24.74,2.3.68,2.1,1.42-.14.52-2.88.48-3.35.55-.73.11-3.51,0-3.54,1a19.5,19.5,0,0,0,6,.72,1,1,0,0,0,.3,0h0A19.91,19.91,0,0,1,156.6,71.38Z"/><path class="cls-7" d="M871.94,93.38a60.67,60.67,0,0,0,8.21.16,14.23,14.23,0,0,1,3.51.14,30.75,30.75,0,0,0,7.38-.22c1.5-.13,3.33.07,4.72-.63,2.78-1.4-1.16-2-2.39-1.93a10.15,10.15,0,0,1-6-.89,8,8,0,0,0-3.08-.62c-.89-.08-2.36-.51-3.2-.1-.36.18-.52.6-1,.79a7.11,7.11,0,0,1-2.2.28,24.66,24.66,0,0,1-3.74-.46c-.87-.07-7.25-1-7.59,0-.24.75,2.3.69,2.1,1.43-.14.52-2.87.48-3.35.55-.73.11-3.51,0-3.54,1a19.5,19.5,0,0,0,6,.72,1.51,1.51,0,0,0,.3,0h0A19.91,19.91,0,0,1,871.94,93.38Z"/><path class="cls-33" d="M915,290.92c-2.14-.9-3.68-1.66-3.32-5.07a5.19,5.19,0,0,1,1.91-3.73,3.61,3.61,0,0,0,1.71-2.4c.45-2-.11-3.64.85-5.47s3.23-1.75,4.25-3.57c.89-1.58,1.3-3.32,3.3-3.93,1.78-.55,2.85,1,2.25,2.52a20.85,20.85,0,0,0-1.32,2.63,3,3,0,0,0,.69,2.36c1.06,1.83,1.61,4-.46,5.9-1.23,1.12-2.18,2.08-1.56,3.91.71,2.09,1.08,3.37-.81,5.21-1.42,1.38-2.74,1.27-4.33,1.37-1.43.1-3.28.7-4.45-.25Z"/><path class="cls-8" d="M910.41,290.88c-1.53,1.64-2.84,2.93-5.1,1a4.61,4.61,0,0,1-1.62-3.9c0-1.34.12-1.95-.72-3-1.31-1.61-3.18-2.19-4-4.28s1.13-3.68.39-5.7c-.65-1.75-1.85-3.39-.7-4.91.93-1.23,2.87-.49,3.61.93a20,20,0,0,0,1,2.5,3.43,3.43,0,0,0,2,1.22c1.67.6,3.17,1.62,3.31,3.76.09,1.32.21,2.41,1.47,3s2.08,1,2.32,3a6.26,6.26,0,0,1-.83,3.67c-.5,1.19-.92,3.05-2,3.73Z"/><path class="cls-19" d="M916.54,288.72h-.2a.16.16,0,0,1-.14-.18.14.14,0,0,1,.17-.14c1.06.11,2.16-.86,2.77-1.72a2.82,2.82,0,0,0,.38-2.08l0-.65c-.1-1.69-.19-3.14,1.12-4.47a4.87,4.87,0,0,0,1.73-4.4c0-.17,0-.35,0-.52a8.58,8.58,0,0,1,0-2,5.06,5.06,0,0,1,.39-1,3.13,3.13,0,0,0,.4-1.22.16.16,0,0,1,.16-.16h0a.16.16,0,0,1,.16.16,3.15,3.15,0,0,1-.43,1.36,4.14,4.14,0,0,0-.36.93,7.8,7.8,0,0,0,0,1.94c0,.18,0,.36,0,.52a5.24,5.24,0,0,1-1.83,4.65c-1.21,1.22-1.13,2.55-1,4.22l0,.64a3.18,3.18,0,0,1-.45,2.3A4,4,0,0,1,916.54,288.72Z"/><path class="cls-19" d="M920.22,284.24a.87.87,0,0,1-.67-.35.16.16,0,0,1,0-.23.15.15,0,0,1,.22,0,.52.52,0,0,0,.55.22c.67-.17,1.41-1.62,1.53-2.16.35-1.61.78-2.43,2.35-3a.15.15,0,0,1,.2.09.16.16,0,0,1-.09.21c-1.51.58-1.82,1.33-2.14,2.79-.11.49-.87,2.19-1.77,2.41A.64.64,0,0,1,920.22,284.24Z"/><path class="cls-19" d="M910.5,290a1.78,1.78,0,0,1-.85-.21c-1.12-.6-1.64-2.34-2.1-3.88a10.82,10.82,0,0,0-.7-1.94,8.73,8.73,0,0,0-2.8-3.08,4.85,4.85,0,0,1-2.24-3.93,9.53,9.53,0,0,0-1.25-4,.16.16,0,1,1,.26-.2,9.82,9.82,0,0,1,1.31,4.18,4.53,4.53,0,0,0,2.11,3.71,9.14,9.14,0,0,1,2.89,3.18,11.38,11.38,0,0,1,.73,2c.44,1.48.94,3.15,1.94,3.68a1.66,1.66,0,0,0,1.34.07.16.16,0,0,1,.1.3A2.51,2.51,0,0,1,910.5,290Z"/><path class="cls-19" d="M905.54,282.09a.13.13,0,0,1-.1,0,.15.15,0,0,1,0-.22c.47-.62.18-1.59-.12-2.62a4.68,4.68,0,0,1-.31-2.58.17.17,0,0,1,.2-.11.17.17,0,0,1,.11.21,4.44,4.44,0,0,0,.31,2.39c.31,1.06.64,2.16.06,2.91A.16.16,0,0,1,905.54,282.09Z"/><path class="cls-19" d="M907.15,284.27h-.06a4.46,4.46,0,0,1-.58-.3,1.72,1.72,0,0,0-.9-.34,4,4,0,0,0-.6,0,2.29,2.29,0,0,1-1.3-.18,7.19,7.19,0,0,1-2.2-1.93c-.1-.12-.23-.33-.37-.54s-.58-.88-.72-.91a.17.17,0,0,1-.12-.19.15.15,0,0,1,.18-.13c.25,0,.52.43.93,1.05.13.21.26.4.35.52a7.21,7.21,0,0,0,2.09,1.84,1.91,1.91,0,0,0,1.14.15,4.48,4.48,0,0,1,.64,0,2.14,2.14,0,0,1,1,.38,3.3,3.3,0,0,0,.53.28.16.16,0,0,1,.09.21A.15.15,0,0,1,907.15,284.27Z"/><path class="cls-34" d="M909.76,291.23c-2.29-1.94-5-3.24-4.4-6.92.51-3.05,4-3.83,2.93-7.11-.71-2.1-2.53-4.52-1.91-6.86.66-2.5,3.93-1.5,4.63-3.83.59-2-1.49-4.25.36-5.86,1.63-1.42,4.51-.07,5.39,1.56,1.12,2.08-.73,3.63-.43,5.66.2,1.32,1.46,1.51,2.39,2.27a7.49,7.49,0,0,1,2.23,3c1.19,3.38-2.2,4.61-3.23,7.21s2.34,3.21,2.59,5.69c.27,2.73-2.65,4.88-5,5.33C913.69,291.64,911.21,292.45,909.76,291.23Z"/><path class="cls-19" d="M912.4,292h0a.16.16,0,0,1-.11-.2,28.32,28.32,0,0,0,.29-13,16.85,16.85,0,0,1,.63-9.55,8.44,8.44,0,0,0,.59-3.71.16.16,0,0,1,.13-.19.18.18,0,0,1,.19.13,8.66,8.66,0,0,1-.61,3.87,16.55,16.55,0,0,0-.61,9.38,28.85,28.85,0,0,1-.3,13.16A.15.15,0,0,1,912.4,292Z"/><path class="cls-19" d="M912.8,278.78a.18.18,0,0,1-.16-.14.16.16,0,0,1,.14-.18,3.67,3.67,0,0,0,3-2.93c0-.18,0-.37,0-.58.06-1,.14-2.2.85-2.79a1.76,1.76,0,0,1,1.39-.33.16.16,0,0,1,.14.18.15.15,0,0,1-.18.14,1.4,1.4,0,0,0-1.14.26c-.61.5-.68,1.64-.73,2.56,0,.21,0,.41,0,.59a4,4,0,0,1-3.28,3.22Z"/><path class="cls-19" d="M911.83,278.82a2.49,2.49,0,0,1-1.6-.57,3.61,3.61,0,0,1-1-2.88c0-.13,0-.28,0-.44.05-.94.12-2.34-.46-3a1.05,1.05,0,0,0-.76-.33.14.14,0,0,1-.15-.16.16.16,0,0,1,.16-.16h0a1.38,1.38,0,0,1,1,.43c.67.74.59,2.23.55,3.21,0,.16,0,.31,0,.44a3.33,3.33,0,0,0,.83,2.63,2.52,2.52,0,0,0,2.13.43.18.18,0,0,1,.19.14.16.16,0,0,1-.14.18A3.64,3.64,0,0,1,911.83,278.82Z"/><path class="cls-19" d="M913.73,289.37a1.43,1.43,0,0,1-.58-.11.15.15,0,0,1-.09-.21.16.16,0,0,1,.21-.09c1,.4,2.46-.69,3-1.42a4.44,4.44,0,0,0,.55-1.27c.29-.88.6-1.79,1.42-2a.15.15,0,0,1,.19.12.16.16,0,0,1-.12.2c-.64.16-.92,1-1.18,1.79a4.76,4.76,0,0,1-.6,1.36A4.3,4.3,0,0,1,913.73,289.37Z"/><path class="cls-19" d="M912.3,289.31a2,2,0,0,1-.63-.11,5.34,5.34,0,0,1-2.55-2.77,5.81,5.81,0,0,1-.25-1.86c0-1.12-.08-2.29-.82-2.66a.16.16,0,0,1-.07-.22.15.15,0,0,1,.21-.07c.91.46,1,1.78,1,2.94a5.55,5.55,0,0,0,.23,1.74,5,5,0,0,0,2.36,2.59,1.41,1.41,0,0,0,1.19-.08.17.17,0,0,1,.22.06.16.16,0,0,1-.07.22A1.63,1.63,0,0,1,912.3,289.31Z"/><path class="cls-18" d="M902.05,290.28a30.4,30.4,0,0,0-1.82,10.61c0,11.24,5.58,20.35,12.46,20.35s12.47-9.11,12.47-20.35a30.4,30.4,0,0,0-1.83-10.61Z"/><path class="cls-8" d="M924.64,295.1a27.86,27.86,0,0,0-1.31-4.82H902.05a27.86,27.86,0,0,0-1.31,4.82Z"/></g></g></svg>